<svg width="25" height="25" viewBox="0 0 25 25" fill="none" xmlns="http://www.w3.org/2000/svg">
<path d="M22.8988 23.8159C23.1917 24.1088 23.6666 24.1088 23.9595 23.8159C24.2524 23.523 24.2524 23.0481 23.9595 22.7552L22.8988 23.8159ZM18.7118 17.5076C18.4189 17.2147 17.9441 17.2147 17.6512 17.5076C17.3583 17.8005 17.3583 18.2754 17.6512 18.5683L18.7118 17.5076ZM20.2664 11.2221C20.2664 16.1379 16.2814 20.1229 11.3656 20.1229V21.6229C17.1098 21.6229 21.7664 16.9663 21.7664 11.2221H20.2664ZM11.3656 20.1229C6.44986 20.1229 2.46484 16.1379 2.46484 11.2221H0.964844C0.964844 16.9663 5.62144 21.6229 11.3656 21.6229V20.1229ZM2.46484 11.2221C2.46484 6.30631 6.44986 2.32129 11.3656 2.32129V0.821289C5.62144 0.821289 0.964844 5.47788 0.964844 11.2221H2.46484ZM11.3656 2.32129C16.2814 2.32129 20.2664 6.30631 20.2664 11.2221H21.7664C21.7664 5.47788 17.1098 0.821289 11.3656 0.821289V2.32129ZM23.9595 22.7552L18.7118 17.5076L17.6512 18.5683L22.8988 23.8159L23.9595 22.7552Z" fill="#BABABA"/>
</svg>
