<svg width="39" height="23" fill="none" xmlns="http://www.w3.org/2000/svg"><g clip-path="url('#clip0_441_10853')" fill-rule="evenodd" clip-rule="evenodd"><path d="M14.299 18.303c3.817-6.954 7.053-.938 1.437.848-.494 1.06-2.08.138-1.438-.848Z" fill="url('#paint0_linear_441_10853')"/><path d="M21.353 21.195c-.436-1.378 2.155-2.71 2.448-.954a.846.846 0 0 1-.255.665c-.041 1.17-1.85 1.445-2.193.29Z" fill="url('#paint1_linear_441_10853')"/><path d="M13.831 8.88c-.092-.669.309-1.383.924-1.622.523-2.04 4.916-3.61 4.277-.295-.55 1.552-4.335 4.62-5.201 1.916Z" fill="url('#paint2_linear_441_10853')"/><path d="M20.518 10.258c-.069-1.061 1.133-1.804 2.062-1.879 1.143.046 1.101 1.618.016 1.728-.176 1.066-1.852 1.357-2.078.151Z" fill="url('#paint3_linear_441_10853')"/><path d="M26.868 5.717c-.479-1.314 1.23-3.54 2.563-2.623 3.671.892-1.39 5.786-2.563 2.623Z" fill="url('#paint4_linear_441_10853')"/><path d="M29.337 13.1c1.019-.468 1.753 1.174.727 1.628-1.015.467-1.749-1.175-.727-1.627Z" fill="url('#paint5_linear_441_10853')"/><path d="M7.11 24.85c.904-1.82 3.182.397 1.382 1.833-1.42 1.184-2.776-.66-1.383-1.833Z" fill="url('#paint6_linear_441_10853')"/><path d="M22.023 27.438c-.176-.946.57-1.703 1.295-2.156.5-1.41 3.144-1.03 3.14.567-.014 1.7-3.671 3.714-4.434 1.59Z" fill="url('#paint7_linear_441_10853')"/></g><defs><linearGradient id="paint0_linear_441_10853" x1="22.621" y1="-13.809" x2="6.586" y2="57.443" gradientUnits="userSpaceOnUse"><stop stop-color="#BD8B5B"/><stop offset=".187" stop-color="#947039"/><stop offset=".369" stop-color="#C4975A"/><stop offset=".539" stop-color="#EBB675"/><stop offset=".627" stop-color="#FAC27F"/><stop offset=".71" stop-color="#E9B473"/><stop offset=".873" stop-color="#BB9054"/><stop offset="1" stop-color="#947039"/></linearGradient><linearGradient id="paint1_linear_441_10853" x1="29.036" y1="-12.367" x2="13.002" y2="58.884" gradientUnits="userSpaceOnUse"><stop stop-color="#BD8B5B"/><stop offset=".187" stop-color="#947039"/><stop offset=".369" stop-color="#C4975A"/><stop offset=".539" stop-color="#EBB675"/><stop offset=".627" stop-color="#FAC27F"/><stop offset=".71" stop-color="#E9B473"/><stop offset=".873" stop-color="#BB9054"/><stop offset="1" stop-color="#947039"/></linearGradient><linearGradient id="paint2_linear_441_10853" x1="20.752" y1="-14.23" x2="4.718" y2="57.022" gradientUnits="userSpaceOnUse"><stop stop-color="#BD8B5B"/><stop offset=".187" stop-color="#947039"/><stop offset=".369" stop-color="#C4975A"/><stop offset=".539" stop-color="#EBB675"/><stop offset=".627" stop-color="#FAC27F"/><stop offset=".71" stop-color="#E9B473"/><stop offset=".873" stop-color="#BB9054"/><stop offset="1" stop-color="#947039"/></linearGradient><linearGradient id="paint3_linear_441_10853" x1="26.423" y1="-12.955" x2="10.389" y2="58.296" gradientUnits="userSpaceOnUse"><stop stop-color="#BD8B5B"/><stop offset=".187" stop-color="#947039"/><stop offset=".369" stop-color="#C4975A"/><stop offset=".539" stop-color="#EBB675"/><stop offset=".627" stop-color="#FAC27F"/><stop offset=".71" stop-color="#E9B473"/><stop offset=".873" stop-color="#BB9054"/><stop offset="1" stop-color="#947039"/></linearGradient><linearGradient id="paint4_linear_441_10853" x1="32.008" y1="-11.698" x2="15.975" y2="59.55" gradientUnits="userSpaceOnUse"><stop stop-color="#BD8B5B"/><stop offset=".187" stop-color="#947039"/><stop offset=".369" stop-color="#C4975A"/><stop offset=".539" stop-color="#EBB675"/><stop offset=".627" stop-color="#FAC27F"/><stop offset=".71" stop-color="#E9B473"/><stop offset=".873" stop-color="#BB9054"/><stop offset="1" stop-color="#947039"/></linearGradient><linearGradient id="paint5_linear_441_10853" x1="34.626" y1="-11.106" x2="18.593" y2="60.141" gradientUnits="userSpaceOnUse"><stop stop-color="#BD8B5B"/><stop offset=".187" stop-color="#947039"/><stop offset=".369" stop-color="#C4975A"/><stop offset=".539" stop-color="#EBB675"/><stop offset=".627" stop-color="#FAC27F"/><stop offset=".71" stop-color="#E9B473"/><stop offset=".873" stop-color="#BB9054"/><stop offset="1" stop-color="#947039"/></linearGradient><linearGradient id="paint6_linear_441_10853" x1="15.92" y1="-15.314" x2="-.114" y2="55.935" gradientUnits="userSpaceOnUse"><stop stop-color="#BD8B5B"/><stop offset=".187" stop-color="#947039"/><stop offset=".369" stop-color="#C4975A"/><stop offset=".539" stop-color="#EBB675"/><stop offset=".627" stop-color="#FAC27F"/><stop offset=".71" stop-color="#E9B473"/><stop offset=".873" stop-color="#BB9054"/><stop offset="1" stop-color="#947039"/></linearGradient><linearGradient id="paint7_linear_441_10853" x1="31.754" y1="-11.754" x2="15.72" y2="59.497" gradientUnits="userSpaceOnUse"><stop stop-color="#BD8B5B"/><stop offset=".187" stop-color="#947039"/><stop offset=".369" stop-color="#C4975A"/><stop offset=".539" stop-color="#EBB675"/><stop offset=".627" stop-color="#FAC27F"/><stop offset=".71" stop-color="#E9B473"/><stop offset=".873" stop-color="#BB9054"/><stop offset="1" stop-color="#947039"/></linearGradient><clipPath id="clip0_441_10853"><path fill="#fff" transform="rotate(66.571 14.477 22.05)" d="M0 0h24v31H0z"/></clipPath></defs></svg>