<svg aria-hidden="true" style="width:0;height:0;position:absolute;overflow:hidden" xmlns="http://www.w3.org/2000/svg"><defs><symbol id="icon-fav" viewBox="0 0 34 32"><path d="m13.335 4.093.675 1.403.676-1.403C15.736 1.914 17.954.75 20.628.75c3.646 0 6.612 3.1 6.622 6.908.004 1.696-.776 3.587-2.053 5.522-1.27 1.921-2.976 3.808-4.705 5.477a61.927 61.927 0 0 1-4.755 4.118 59.634 59.634 0 0 1-1.727 1.304l-.16-.116c-.376-.276-.917-.68-1.566-1.188a61.81 61.81 0 0 1-4.758-4.123c-1.73-1.672-3.439-3.562-4.71-5.49C1.535 11.223.75 9.322.75 7.614.75 3.819 3.747.75 7.405.75c2.672 0 4.88 1.163 5.93 3.343Z" stroke="#E12317" stroke-width="1.5"/></symbol></defs></svg>