<svg width="25" height="25" fill="none" xmlns="http://www.w3.org/2000/svg"><path d="M22.899 23.816a.75.75 0 0 0 1.06-1.06l-1.06 1.06Zm-4.187-6.308a.75.75 0 1 0-1.06 1.06l1.06-1.06Zm1.554-6.286a8.9 8.9 0 0 1-8.9 8.9v1.5c5.744 0 10.4-4.656 10.4-10.4h-1.5Zm-8.9 8.9a8.9 8.9 0 0 1-8.901-8.9h-1.5c0 5.744 4.656 10.4 10.4 10.4v-1.5Zm-8.901-8.9a8.9 8.9 0 0 1 8.9-8.9v-1.5c-5.744 0-10.4 4.656-10.4 10.4h1.5Zm8.9-8.9a8.9 8.9 0 0 1 8.901 8.9h1.5c0-5.744-4.656-10.4-10.4-10.4v1.5ZM23.96 22.754l-5.247-5.247-1.06 1.06 5.247 5.248 1.06-1.06Z" fill="#BABABA"/></svg>