<svg aria-hidden="true" style="width:0;height:0;position:absolute;overflow:hidden" xmlns="http://www.w3.org/2000/svg"><defs><symbol id="icon-flowers-pin-11" viewBox="0 0 32 32"><path d="M28.997 11.055a.5.5 0 0 0-.655-.528l-3.479 1.16A14.556 14.556 0 0 0 26.5 5.001v-1c0-.088-.024-.175-.068-.252s-.109-.14-.186-.183a.497.497 0 0 0-.504.006L23.05 5.189c.298-1.376.449-2.78.45-4.189a.504.504 0 0 0-.425-.495.485.485 0 0 0-.233.021 7.687 7.687 0 0 0-4.481 3.96 10.078 10.078 0 0 0-1.336-1.668l-.671-.671a.5.5 0 0 0-.708 0 12.477 12.477 0 0 0-1.559 1.917A17.542 17.542 0 0 0 11.883.68a.498.498 0 0 0-.697-.07A7.124 7.124 0 0 0 8.498 6.2v.479c0 .043.007.084.008.127a7.29 7.29 0 0 0-3.337-.805H3.998a.5.5 0 0 0-.464.685l.239.596a10.668 10.668 0 0 0 3.99 4.922c.105.412.243.815.414 1.204a12.62 12.62 0 0 0-4.678-.908.498.498 0 0 0-.5.5 7.497 7.497 0 0 0 3.834 6.537.473.473 0 0 0-.326.552l1.642 9.032a2.894 2.894 0 0 0 2.85 2.378h11a2.891 2.891 0 0 0 2.85-2.378l1.642-9.032a.497.497 0 0 0-.281-.542.5.5 0 0 0-.212-.047h-2.25a3.18 3.18 0 0 0 .02-2.429 7.036 7.036 0 0 0 5.226-6.016zM23 18.258a2.23 2.23 0 0 1-.764 1.683l-2.581 2.258a1.154 1.154 0 0 1-.589.263 15.986 15.986 0 0 0 2.341-6.82c.342.144.629.393.821.71l.452.755c.209.348.319.745.319 1.151zM13.768 19.5A5.618 5.618 0 0 0 15.26 18h1.035a4.61 4.61 0 0 0-.288 1.5h-2.239zM9.671 10A6.331 6.331 0 0 1 16 16.329v.437a14.12 14.12 0 0 1-7.17-6.724L8.809 10h.863zm6.829.623v3.05a7.323 7.323 0 0 0-3.436-3.842 11.44 11.44 0 0 1 2.666-6.287c.511 2.325.769 4.699.77 7.079zm3.389-1.434.222-.277a10.867 10.867 0 0 1 2.904-2.538l2.009-1.205a21.707 21.707 0 0 1-7.473 9.834 10.95 10.95 0 0 1 2.338-5.814zM17 16.5a.496.496 0 0 0 .277-.084l.083-.058a4.464 4.464 0 0 0-.36.406v-.265zm-3.028.373A6.727 6.727 0 0 1 8.7 11.837a15.085 15.085 0 0 0 5.272 5.037zm4.547-.2 1.183-.845a1.75 1.75 0 0 1 .712-.297 14.985 14.985 0 0 1-2.25 6.5l-.106.166a1.115 1.115 0 0 1-.17-.18l-.16-.214a3.628 3.628 0 0 1 .793-5.13l-.002-.002zm2.204-2.173a2.737 2.737 0 0 0-1.45.422 22.644 22.644 0 0 0 6.073-7.934 13.56 13.56 0 0 1-1.433 4.364 7.814 7.814 0 0 1-3.1 3.153c-.03-.001-.059-.006-.09-.006zm-1.551-9.407a6.684 6.684 0 0 1 3.313-3.353 18.84 18.84 0 0 1-.656 4.221 11.84 11.84 0 0 0-2.079 1.844 10.157 10.157 0 0 0-.781-2.255l.204-.457zm-.254 3.73a11.917 11.917 0 0 0-1.418 2.418v-.618a34.058 34.058 0 0 0-.628-6.489 9.188 9.188 0 0 1 2.046 4.69zm-6.813.6a6.69 6.69 0 0 0-.543-.168 28.254 28.254 0 0 1 .23-7.05 16.48 16.48 0 0 1 1.682 2.89 12.427 12.427 0 0 0-1.369 4.326l-.001.002zM9.5 6.2a6.123 6.123 0 0 1 1.241-3.7 29.266 29.266 0 0 0-.197 6.554 7.794 7.794 0 0 0-.65-.046l-.209-.836a6.152 6.152 0 0 1-.184-1.492V6.2zM4.739 7h.432c1.235 0 2.443.362 3.473 1.043.024.124.038.25.069.373L8.859 9h-.86a.498.498 0 0 0-.5.5v.74c0 .182.016.361.029.541A9.654 9.654 0 0 1 4.739 7zm5.365 9.039c.288.253.594.484.915.691a13.645 13.645 0 0 1-6.2-3.15c1.432.164 2.821.594 4.096 1.266l.176.094c.301.398.64.767 1.012 1.1zM4.139 14.31a14.651 14.651 0 0 0 9.768 3.732h.046a4.662 4.662 0 0 1-3.369 1.458h-.085a6.503 6.503 0 0 1-6.361-5.19zm19.727 14.633A1.896 1.896 0 0 1 22 30.5H11a1.9 1.9 0 0 1-1.865-1.556L7.6 20.5h8.488c.132.688.419 1.338.838 1.9l.16.214a2.224 2.224 0 0 0 1.54.874 2.222 2.222 0 0 0 1.688-.536l2.581-2.258c.07-.061.136-.128.2-.194H25.4l-1.535 8.444zm-.38-12.83-.204.05-.195-.326a2.768 2.768 0 0 0-.985-.965 8.79 8.79 0 0 0 1.924-1.854l3.835-1.278a6.042 6.042 0 0 1-4.374 4.374z"/></symbol><symbol id="icon-flowers-pin-10" viewBox="0 0 32 32"><path d="M10.428 9.4a2.056 2.056 0 0 0 4.11-.001 2.056 2.056 0 0 0-4.11 0zm3.081 0c0 .566-.461 1.027-1.027 1.027s-1.027-.461-1.027-1.027c0-.566.461-1.027 1.027-1.027s1.027.461 1.027 1.027zM26.864 7.346c-1.133 0-2.055.921-2.055 2.054a2.056 2.056 0 0 0 4.11-.001 2.056 2.056 0 0 0-2.055-2.054zm0 3.082a1.028 1.028 0 0 1 0-2.054 1.028 1.028 0 0 1 0 2.054z"/><path d="M32 9.4c0-.718-.37-1.363-.957-1.731a2.04 2.04 0 0 0-2.448-2.447c-.368-.588-1.013-.957-1.731-.957s-1.363.37-1.731.959a2.082 2.082 0 0 0-.668-.036 2.048 2.048 0 0 0-.612-.6c.156-.676-.039-1.393-.546-1.901s-1.225-.7-1.901-.546c-.368-.588-1.013-.957-1.731-.957s-1.363.37-1.731.957a2.043 2.043 0 0 0-2.447 2.447 2.047 2.047 0 0 0-.608.597 2.063 2.063 0 0 0-.673.036 2.05 2.05 0 0 0-.752-.708 4.612 4.612 0 0 0-1.601-2.893L9.916-.001 7.971 1.62a4.617 4.617 0 0 0-.948 1.087c-.028-.03-.054-.062-.083-.091a4.866 4.866 0 0 0-3.463-1.435H1.184v2.293c0 1.308.51 2.538 1.435 3.463.018.019.039.034.058.052-.336.22-.644.487-.908.803L.003 9.912l1.766 2.12a4.082 4.082 0 0 0 2.865 1.459 4.872 4.872 0 0 0-.366 1.832v2.293h1.718a11.294 11.294 0 0 0 4.802 5.843l-.073.145a2.7 2.7 0 0 0 0 2.406l.169.338-.169.338a2.7 2.7 0 0 0 0 2.406l.426.852h.318c.607 0 1.195-.119 1.743-.333-.074.242-.14.488-.192.746l-.123.614h.715c.468 0 .909.182 1.24.514s.771.514 1.24.514c.468 0 .909-.182 1.24-.514s.771-.514 1.24-.514l.705-.05-.123-.614a7.227 7.227 0 0 0-.179-.695 4.79 4.79 0 0 0 1.74.332h.317l.426-.852a2.7 2.7 0 0 0 0-2.406l-.169-.338.169-.338a2.7 2.7 0 0 0 0-2.406l-.07-.14a11.37 11.37 0 0 0 5.458-8.932l.031.002c.718 0 1.363-.37 1.731-.957.675.155 1.394-.039 1.901-.546s.702-1.224.546-1.901a2.036 2.036 0 0 0 .958-1.732zM16.289 5.344l.59-.183-.288-.546a1.022 1.022 0 0 1 .176-1.202 1.02 1.02 0 0 1 1.202-.176l.547.288.183-.59c.135-.433.526-.725.974-.725s.84.291.974.725l.183.59.547-.288c.402-.212.886-.14 1.202.176s.387.8.176 1.202l-.288.546.59.183c.433.135.725.526.725.974s-.291.84-.725.974l-.59.183.288.546c.197.375.14.815-.124 1.13a2.567 2.567 0 0 0-1.361-1.557c.282-.352.458-.792.458-1.277a2.056 2.056 0 0 0-4.11 0c0 .692.346 1.302.872 1.675a2.564 2.564 0 0 0-.829 1.449c-.016.003-.031.009-.047.012 0-.018.004-.036.004-.054 0-.718-.37-1.363-.957-1.731a2.036 2.036 0 0 0-.77-2.093 1.09 1.09 0 0 1 .4-.231zm1.843 8.165a1.53 1.53 0 0 1-1.517-1.305c.082-.258.113-.531.088-.803a1.533 1.533 0 0 1 1.428-.974h.514v-.514c0-.85.691-1.541 1.541-1.541s1.541.691 1.541 1.541v.514h.514c.85 0 1.541.691 1.541 1.541s-.691 1.541-1.541 1.541h-.514v.514c0 .85-.691 1.541-1.541 1.541s-1.541-.691-1.541-1.541v-.514l-.514-.001zm-2.057 2.197a13.394 13.394 0 0 0-2.097-1.825 2.11 2.11 0 0 0 .236-.302 2.036 2.036 0 0 0 1.682-.358 2.537 2.537 0 0 0 1.541 1.213c-.486.393-.939.819-1.362 1.272zm3.598-8.36a1.028 1.028 0 0 1 0-2.054 1.028 1.028 0 0 1 0 2.054zm-5.487-1.027c.402-.211.885-.141 1.202.176s.387.8.176 1.202l-.288.546.59.183c.433.135.725.526.725.974s-.291.84-.725.974l-.59.183.288.546c.211.402.14.885-.176 1.202s-.799.388-1.202.176l-.546-.288-.183.59a1.018 1.018 0 0 1-1.948 0l-.183-.59-.546.288a1.019 1.019 0 0 1-1.202-.176 1.022 1.022 0 0 1-.176-1.202l.288-.546-.59-.183a1.018 1.018 0 0 1 0-1.948l.59-.183-.288-.546c-.211-.402-.14-.885.176-1.202s.799-.388 1.202-.176l.546.288.183-.59c.135-.433.526-.725.974-.725s.84.291.974.725l.183.59.546-.288zM8.627 2.41l1.287-1.073 1.288 1.073a3.577 3.577 0 0 1 1.168 1.861 2.03 2.03 0 0 0-1.618.95 2.085 2.085 0 0 0-.324-.044v-1.94H9.401v1.328l-.664-.664-.726.726 1.001 1.001a2.032 2.032 0 0 0-.727 1.919 3.529 3.529 0 0 1-.937-2.401 3.55 3.55 0 0 1 1.281-2.735zM3.343 6.212a3.846 3.846 0 0 1-1.134-2.737V2.209h1.266c1.034 0 2.005.403 2.737 1.134.12.12.229.251.332.386a4.602 4.602 0 0 0-.201 1.888L3.6 2.874l-.726.726 2.797 2.797a4.112 4.112 0 0 0-.754-.079c-.419 0-.829.068-1.219.189-.121-.095-.245-.186-.355-.295zm-.787 5.164L1.338 9.913l1.218-1.462a3.068 3.068 0 0 1 2.362-1.106c1.03 0 1.983.522 2.55 1.37a2.03 2.03 0 0 0-.121.685h-.815l-1.39-1.39-.726.726.664.664H3.238v1.027H5.08l-.664.664.726.726 1.39-1.39h1.093c.036.063.074.124.118.182a3.056 3.056 0 0 1-2.824 1.872 3.062 3.062 0 0 1-2.361-1.105zm2.735 3.949c0-.68.186-1.338.523-1.925a4.051 4.051 0 0 0 2.448-1.636c.026.301.115.595.271.859l-2.578 2.578.726.726 2.578-2.578c.323.191.69.283 1.06.278a3.867 3.867 0 0 1-3.762 2.964H5.291v-1.266zm1.778 2.266a4.861 4.861 0 0 0 2.951-1.407c.58-.58.995-1.291 1.226-2.065a2.036 2.036 0 0 0 1.766.348 12.409 12.409 0 0 1 2.386 2.018 13.383 13.383 0 0 0-2.785 6.414 4.827 4.827 0 0 0-1.001-.136 10.268 10.268 0 0 1-4.544-5.172zm4.562 11.043a1.667 1.667 0 0 1 0-1.486l.399-.798-.399-.798a1.667 1.667 0 0 1 0-1.486l.136-.271a3.744 3.744 0 0 1 2.626 1.399l.339.424c-.12.219-.194.466-.194.733s.075.514.194.733l-.338.423a3.74 3.74 0 0 1-2.626 1.399l-.136-.272zm4.96-2.284a.514.514 0 1 1-1.028 0 .514.514 0 0 1 1.028 0zm1.416 3.649a2.758 2.758 0 0 0-1.416.76.744.744 0 0 1-1.027 0 2.758 2.758 0 0 0-1.416-.76c.136-.471.33-.921.574-1.349.167-.156.327-.321.473-.503l.299-.374a1.514 1.514 0 0 0 1.168 0l.299.374c.145.181.306.346.472.502.244.427.438.878.574 1.349zm2.518-2.852a1.667 1.667 0 0 1 0 1.486l-.136.271a3.744 3.744 0 0 1-2.626-1.399l-.339-.424c.12-.219.194-.466.194-.733s-.075-.514-.194-.733l.338-.423a3.74 3.74 0 0 1 2.626-1.399l.136.271a1.667 1.667 0 0 1 0 1.486l-.399.798.399.798zm.021-4.384a4.764 4.764 0 0 0-3.585 1.788l-.299.374a1.518 1.518 0 0 0-1.168 0l-.3-.374a4.775 4.775 0 0 0-1.592-1.287 12.373 12.373 0 0 1 4.369-7.945 2.569 2.569 0 0 0 2.215 1.271 2.573 2.573 0 0 0 2.525-2.098 2.57 2.57 0 0 0 1.526-.917c.294.064.6.068.894.001.174.278.411.505.687.67a10.342 10.342 0 0 1-5.272 8.516zm9.702-12.389-.59.183.288.546c.211.402.14.885-.176 1.202s-.799.388-1.202.176l-.546-.288-.183.59a1.018 1.018 0 0 1-1.948 0l-.183-.59-.547.288c-.137.072-.288.11-.439.117.052-.203.088-.412.088-.631 0-.961-.532-1.797-1.315-2.237a2.033 2.033 0 0 0 .358-1.682 2.035 2.035 0 0 0 .957-1.731c0-.037-.005-.072-.007-.109.124.015.245.05.358.109l.546.288.183-.59a1.018 1.018 0 0 1 1.948 0l.183.59.546-.288c.402-.211.885-.141 1.202.176s.387.8.176 1.202l-.288.546.59.183c.433.135.725.526.725.974s-.291.841-.724.975z"/><path d="M20.186 13.509c.85 0 1.541-.691 1.541-1.541s-.691-1.541-1.541-1.541-1.541.691-1.541 1.541.691 1.541 1.541 1.541zm0-2.054a.514.514 0 1 1 0 1.028.514.514 0 0 1 0-1.028z"/></symbol><symbol id="icon-flowers-pin-9" viewBox="0 0 32 32"><path d="M16.55 15.013c2.505-.692 4.344-3.584 4.344-6.946 0-3.917-2.469-7.103-5.503-7.103S9.888 4.15 9.888 8.067c0 3.362 1.839 6.254 4.345 6.946l-.376 1.151a.386.386 0 0 0 .365.504h.787l-.001.014v11.23a.384.384 0 0 0 .768 0v-11.23l-.001-.014h.787a.383.383 0 0 0 .364-.504l-.375-1.151zm-1.799.886.343-1.049a.387.387 0 0 0-.301-.498c-2.358-.4-4.137-3.102-4.137-6.285 0-3.493 2.125-6.335 4.736-6.335s4.735 2.842 4.735 6.335c0 3.183-1.778 5.885-4.137 6.285a.386.386 0 0 0-.3.498l.342 1.049h-1.281z"/><path d="M15.933 3.775c.302.119.964.583 1.536 1.563.459.787.98 2.143.852 4.131a.384.384 0 0 0 .358.408l.025.001c.203 0 .37-.157.383-.359.14-2.181-.442-3.687-.955-4.567-.633-1.085-1.428-1.696-1.916-1.89a.383.383 0 1 0-.282.713zM24.734 9.483c-2.682 0-4.864 2.81-4.864 6.263 0 2.942 1.601 5.475 3.788 6.11l-.313.96a.384.384 0 0 0 .365.503h.64v4.591a.384.384 0 0 0 .768 0v-4.591h.64a.385.385 0 0 0 .365-.503l-.314-.96c2.188-.635 3.788-3.169 3.788-6.11 0-3.453-2.182-6.263-4.863-6.263zm.516 11.716a.382.382 0 0 0-.3.498l.279.855h-.989l.279-.855a.383.383 0 0 0-.301-.498c-2.041-.346-3.58-2.69-3.58-5.452 0-3.03 1.837-5.495 4.096-5.495s4.096 2.465 4.096 5.495c0 2.762-1.539 5.106-3.58 5.452z"/><path d="M25.473 11.322a.383.383 0 1 0-.283.714c.726.288 2.252 1.93 2.06 4.934a.384.384 0 0 0 .358.408l.025.001c.202 0 .37-.157.383-.359.123-1.921-.39-3.248-.842-4.023-.56-.96-1.266-1.502-1.7-1.674zM7.202 11.878c-2.329 0-4.224 2.433-4.224 5.423 0 2.521 1.362 4.697 3.232 5.274l-.251.769a.386.386 0 0 0 .365.504h.493v4.063a.384.384 0 0 0 .768 0v-4.063h.493a.385.385 0 0 0 .365-.504l-.251-.769c1.87-.577 3.232-2.753 3.232-5.274 0-2.99-1.895-5.423-4.224-5.423zm.432 10.043a.384.384 0 0 0-.3.498l.216.661h-.696l.216-.661a.386.386 0 0 0-.3-.498c-1.723-.292-3.023-2.278-3.023-4.619 0-2.567 1.55-4.655 3.456-4.655s3.456 2.088 3.456 4.655c0 2.341-1.3 4.327-3.023 4.619z"/><path d="M7.856 13.458a.383.383 0 1 0-.283.714c.387.154 1.91 1.378 1.731 4.175a.384.384 0 0 0 .358.408l.025.001c.202 0 .37-.157.383-.359.207-3.232-1.574-4.684-2.214-4.938z"/></symbol><symbol id="icon-flowers-pin-8" viewBox="0 0 32 32"><path d="M25.338 10.696V1.481A1.484 1.484 0 0 0 23.857 0h-16a1.484 1.484 0 0 0-1.481 1.481v9.215a1.48 1.48 0 0 0-1.185 1.452v18.37a1.484 1.484 0 0 0 1.481 1.481h18.37a1.484 1.484 0 0 0 1.481-1.481v-18.37a1.483 1.483 0 0 0-1.185-1.452zm0 10.045h-7.767a1.974 1.974 0 0 0-.147-.395.449.449 0 0 1 0-.394c.063-.126.112-.259.147-.395h7.767v1.185zm-8.81 3.003h-.671a.593.593 0 0 0-.563.405l-.167.5-1.177-2.119.676.406a1.973 1.973 0 0 0 1.51.223l.39.586zm-5.868.905-.167-.5a.597.597 0 0 0-.562-.405H9.26l.354-.53a1.975 1.975 0 0 0 1.168-.278l1.159-.695.042.026-1.324 2.382zm-4.285-3.908v-1.185h1.463c.035.137.084.269.147.395a.449.449 0 0 1 0 .394 1.997 1.997 0 0 0-.147.395H6.375zm2.67-1.32a.799.799 0 0 1 .172-.947.8.8 0 0 1 .957-.098l1.034.62c-.06.18-.09.369-.09.559v1.185c0 .19.03.378.09.558l-1.034.621a.8.8 0 0 1-1.127-1.044 1.639 1.639 0 0 0 0-1.454zm1.121-9.156a.636.636 0 0 1-.234-.493.643.643 0 0 1 .231-.495.755.755 0 0 1 1.027.047l.287.287a.596.596 0 0 0 .646.129.58.58 0 0 0 .192-.129l.287-.287a.761.761 0 0 1 1.027-.047.643.643 0 0 1-.003.988l-.492.402h-2.461l-.504-.402zm6.199 10.61a.799.799 0 0 1-.634 1.155.796.796 0 0 1-.495-.111l-.728-.437c.107-.233.163-.486.163-.742v-1.185c0-.256-.056-.509-.163-.742l.728-.437a.8.8 0 0 1 1.127 1.044 1.639 1.639 0 0 0 0 1.454zm-2.878-1.319v1.185a.595.595 0 0 1-1.012.419.595.595 0 0 1-.174-.419v-1.185a.595.595 0 0 1 1.012-.419.595.595 0 0 1 .174.419zm0-7.704v6.028a1.772 1.772 0 0 0-1.185 0v-6.028h1.185zm4.022 6.518a1.965 1.965 0 0 0-1.179-1.174 1.987 1.987 0 0 0-1.658.139v-5.483h10.37a.296.296 0 0 1 .297.297v6.222h-7.83zm.582-8.105a.627.627 0 0 1-.235-.493.643.643 0 0 1 .231-.495.755.755 0 0 1 1.027.047l.287.287a.596.596 0 0 0 .646.129.58.58 0 0 0 .192-.129l.287-.287a.761.761 0 0 1 1.027-.047.643.643 0 0 1-.003.988l-.491.402h-2.462l-.504-.402zM7.561 1.481a.296.296 0 0 1 .297-.297h16c.079 0 .154.031.209.087s.087.131.087.21v9.185h-1.421a1.825 1.825 0 0 0-.421-2.3 1.933 1.933 0 0 0-2.491-.002 1.937 1.937 0 0 0-2.491.002 1.827 1.827 0 0 0-.42 2.3h-2.101a1.825 1.825 0 0 0-.421-2.3c-.349-.293-.79-.454-1.246-.455s-.897.16-1.246.453a1.937 1.937 0 0 0-2.491.002 1.827 1.827 0 0 0-.42 2.3H7.563V1.481zm-.889 10.371h4.444v5.709l-.334-.2a1.979 1.979 0 0 0-2.413.284 1.98 1.98 0 0 0-.469.726H6.374v-6.222a.296.296 0 0 1 .297-.297zm-.297 18.666v-8.593h1.526c.12.325.323.613.591.834l-.832 1.248a.595.595 0 0 0 .188.837.592.592 0 0 0 .304.084h1.351l.458 1.373a.595.595 0 0 0 .863.324.595.595 0 0 0 .217-.223l.075-.134v4.547H6.672a.296.296 0 0 1-.297-.297zm5.926.297v-6.68l.593-1.067.593 1.067v6.68h-1.185zm12.741 0h-10.37v-4.547l.075.135a.595.595 0 0 0 .572.302.594.594 0 0 0 .508-.403l.458-1.373h1.35a.599.599 0 0 0 .523-.313.586.586 0 0 0-.03-.608l-.981-1.471a1.994 1.994 0 0 0 .362-.611h7.83v8.593a.296.296 0 0 1-.297.297zM9.415 5.637l2.104 1.721a.59.59 0 0 0 .75 0l2.104-1.721a1.834 1.834 0 0 0 .67-1.404 1.824 1.824 0 0 0-.657-1.411 1.933 1.933 0 0 0-2.491-.002 1.937 1.937 0 0 0-2.491.002 1.839 1.839 0 0 0-.657 1.411 1.819 1.819 0 0 0 .67 1.404zm.747-1.905a.755.755 0 0 1 1.027.047l.287.287a.577.577 0 0 0 .419.173.59.59 0 0 0 .419-.173l.287-.287a.761.761 0 0 1 1.027-.047.643.643 0 0 1-.003.988l-1.729 1.414-1.728-1.414a.636.636 0 0 1-.234-.493.643.643 0 0 1 .231-.495zm7.179 1.905 2.104 1.721a.59.59 0 0 0 .75 0l2.104-1.721a1.834 1.834 0 0 0 .67-1.404 1.836 1.836 0 0 0-.657-1.411 1.933 1.933 0 0 0-2.491-.002 1.937 1.937 0 0 0-2.491.002 1.839 1.839 0 0 0-.657 1.411 1.819 1.819 0 0 0 .67 1.404zm.746-1.905a.755.755 0 0 1 1.027.047l.287.287a.577.577 0 0 0 .419.173.59.59 0 0 0 .419-.173l.287-.287a.761.761 0 0 1 1.027-.047.643.643 0 0 1-.003.988l-1.728 1.414-1.728-1.414a.627.627 0 0 1-.235-.493.643.643 0 0 1 .23-.495z"/></symbol><symbol id="icon-flowers-pin-7" viewBox="0 0 32 32"><path d="M1.067 13.867V30.4a1.6 1.6 0 0 0 1.6 1.6h26.667a1.6 1.6 0 0 0 1.6-1.6v-5.867c.589 0 1.067-.478 1.067-1.067v-1.6a1.596 1.596 0 0 0-1.424-1.582c.139-.103.272-.214.398-.332a1.63 1.63 0 0 0 .48-1.357 6.454 6.454 0 0 0-1.227-2.995 1.601 1.601 0 0 0-1.667-.626 6.648 6.648 0 0 0-.827.257v-1.366c.589 0 1.067-.478 1.067-1.067v-2.667a1.6 1.6 0 0 0-1.6-1.6h-1.19a5.298 5.298 0 0 0 2.249-3.645.533.533 0 0 0-.655-.606l-1.615.404-.404-1.616a.534.534 0 0 0-.894-.247 6.994 6.994 0 0 1-1.436 1.02 5.65 5.65 0 0 0-2.32-3.587 1.566 1.566 0 0 0-1.099-.237 7.249 7.249 0 0 0-5.435 4.32A7.245 7.245 0 0 0 8.971.017a1.566 1.566 0 0 0-1.099.237 5.653 5.653 0 0 0-2.323 3.584 7.086 7.086 0 0 1-1.44-1.02.533.533 0 0 0-.894.248l-.404 1.616-1.612-.402a.532.532 0 0 0-.655.606 5.298 5.298 0 0 0 2.249 3.645h-1.19a1.6 1.6 0 0 0-1.6 1.6v2.667c0 .589.478 1.067 1.067 1.067zM2.133 30.4V13.867h9.6v17.067H2.666a.533.533 0 0 1-.533-.533zM12.8 6.933c0-.295.239-.533.533-.533h2.133c.294 0 .533.239.533.533v1.6h-3.2v-1.6zM12.267 9.6h4.267v3.2h-4.267V9.6zm.533 21.333V13.866H16v17.067h-3.2zm7.467-.533v-5.867h2.667v6.4h-2.133a.533.533 0 0 1-.533-.533zm-.374-11.217a.557.557 0 0 1-.16-.465 5.39 5.39 0 0 1 1.03-2.489.539.539 0 0 1 .558-.213 4.253 4.253 0 0 1 2.981 2.142 1.6 1.6 0 0 0-1.37 1.575v.533h-.008a4.271 4.271 0 0 1-3.029-1.084h-.003zm6.774 4.284h-3.2v-2.133h3.2v2.133zm-.534-3.2H24v-.533c0-.294.239-.533.533-.533H25.6c.295 0 .533.239.533.533v.533zM22.4 21.333v2.133h-3.2v-1.6c0-.295.239-.533.533-.533H22.4zm1.6 9.6v-6.4h2.133v6.4H24zm5.867-.533a.533.533 0 0 1-.533.533h-2.133v-6.4h2.667V30.4zm1.066-8.533v1.6h-3.2v-2.133H30.4c.295 0 .533.239.533.533zm-2.125-5.853a.54.54 0 0 1 .559.213c.549.73.903 1.588 1.03 2.493a.555.555 0 0 1-.16.465 4.266 4.266 0 0 1-3.028 1.082h-.008v-.533a1.6 1.6 0 0 0-1.374-1.577 4.254 4.254 0 0 1 2.981-2.142zm-2.141-.261a4.962 4.962 0 0 0-1.6 1.581 5.378 5.378 0 0 0-3.494-2.359 1.6 1.6 0 0 0-1.668.625 6.453 6.453 0 0 0-1.227 2.996 1.631 1.631 0 0 0 .48 1.357c.126.118.259.228.397.331a1.596 1.596 0 0 0-1.422 1.584v1.6c0 .589.478 1.067 1.067 1.067v5.867c.002.182.035.363.098.533h-2.231V13.868h9.6v1.886zM27.2 9.6c.295 0 .533.239.533.533V12.8H17.6V9.6h9.6zm-3.963-3.176c.159-.26.239-.562.23-.867a9.578 9.578 0 0 0-.036-.607 8.36 8.36 0 0 0 1.325-.797l.328 1.31a.534.534 0 0 0 .647.388l1.274-.32c-.745 2.197-2.797 3.003-4.604 3.003h-1.557a6.027 6.027 0 0 0 2.394-2.109zm-3.233-5.351a.5.5 0 0 1 .349.078c.587.382 1.966 1.579 2.047 4.436a.52.52 0 0 1-.073.28c-.408.667-1.736 2.253-5.26 2.662V6.933a1.594 1.594 0 0 0-.254-.858 4.542 4.542 0 0 1 2.023-1.836.533.533 0 0 0 .185-.907.534.534 0 0 0-.523-.107 5.429 5.429 0 0 0-2.531 2.194 1.55 1.55 0 0 0-.5-.086h-.341c.444-1.216 1.732-3.755 4.879-4.261zM8.45 1.151a.49.49 0 0 1 .349-.078c3.147.506 4.435 3.045 4.879 4.261h-.345a1.58 1.58 0 0 0-.5.088 5.435 5.435 0 0 0-2.531-2.194.534.534 0 1 0-.338 1.014 4.542 4.542 0 0 1 2.023 1.836 1.585 1.585 0 0 0-.254.856v1.595c-3.52-.41-4.849-1.995-5.256-2.661a.51.51 0 0 1-.073-.28c.08-2.857 1.458-4.054 2.046-4.436zM1.797 5.532l1.274.32a.533.533 0 0 0 .647-.388l.327-1.31a8.37 8.37 0 0 0 1.329.8c-.017.194-.029.397-.036.606-.01.305.07.607.229.867a6.02 6.02 0 0 0 2.394 2.106H6.4c-1.807 0-3.859-.806-4.603-3.001zm-.73 4.601c0-.294.239-.533.533-.533h9.6v3.2H1.067v-2.667z"/></symbol><symbol id="icon-flowers-pin-6" viewBox="0 0 32 32"><path d="M16 5c-3.117 0-4.236-1.029-4.354-1.147a.498.498 0 0 1 .075-.769.5.5 0 0 1 .278-.084c2.156 0 3.54-2.697 3.553-2.724a.53.53 0 0 1 .447-.254.515.515 0 0 1 .447.254C16.46.303 17.842 3 19.999 3a.5.5 0 0 1 .353.853C20.235 3.971 19.116 5 15.998 5zm-2.505-1.316A8.79 8.79 0 0 0 16 4a8.795 8.795 0 0 0 2.505-.316A6.25 6.25 0 0 1 16 1.464a6.23 6.23 0 0 1-2.505 2.22z"/><path d="M12.5 8c-2.334 0-2.95-1.766-2.974-1.842a.498.498 0 0 1 .475-.658c1.72 0 3.087-1.782 3.1-1.8l.8.6a6.09 6.09 0 0 1-3.046 2.1 2.243 2.243 0 0 0 1.646.6v1zM19.5 8V7c.301.016.603-.028.886-.132s.543-.262.764-.468a6.085 6.085 0 0 1-3.05-2.1l.8-.6c.014.018 1.381 1.8 3.1 1.8a.504.504 0 0 1 .495.425.498.498 0 0 1-.02.233C22.451 6.233 21.835 8 19.501 8z"/><path d="M20 10.5a2.897 2.897 0 0 1-2.39-1.308c-.343.73-.897 1.308-1.61 1.308s-1.267-.578-1.61-1.308A2.891 2.891 0 0 1 12 10.5a4.331 4.331 0 0 1-2.854-1.146.498.498 0 0 1 .075-.769.5.5 0 0 1 .278-.084c1.733 0 3.591-2.29 3.61-2.313l.78.625a8.82 8.82 0 0 1-3.11 2.426c.384.17.799.259 1.219.262 1.386 0 2-1.45 2-2a.498.498 0 0 1 .5-.5.498.498 0 0 1 .5.5c0 .966.587 2 1 2s1-1.034 1-2a.498.498 0 0 1 .5-.5.498.498 0 0 1 .5.5c0 .55.614 2 2 2a3.061 3.061 0 0 0 1.222-.261 8.81 8.81 0 0 1-3.113-2.427l.78-.625c.018.023 1.877 2.313 3.61 2.313a.5.5 0 0 1 .353.853 4.32 4.32 0 0 1-2.854 1.146z"/><path d="M21.5 15a4.144 4.144 0 0 1-3.365-1.775c-.431.998-1.207 1.776-2.136 1.776s-1.704-.778-2.136-1.776c-.378.543-.881.988-1.467 1.296s-1.236.473-1.898.479a4.331 4.331 0 0 1-3.411-1.716.504.504 0 0 1 .152-.713.503.503 0 0 1 .259-.072c2.303 0 4.06-2.739 4.077-2.767l.847.533c-.072.115-1.582 2.478-3.856 3.09a3.219 3.219 0 0 0 1.932.644c1.95 0 3-1.774 3-2.5a.498.498 0 0 1 .5-.5.5.5 0 0 1 .5.5c0 1.215.771 2.5 1.5 2.5s1.5-1.285 1.5-2.5a.498.498 0 0 1 .5-.5.5.5 0 0 1 .5.5c0 .726 1.05 2.5 3 2.5a3.226 3.226 0 0 0 1.931-.645 6.396 6.396 0 0 1-2.789-1.771l.717-.697c.715.736 1.841 1.613 3.141 1.613a.503.503 0 0 1 .443.268.5.5 0 0 1-.032.517A4.332 4.332 0 0 1 21.498 15z"/><path d="M22.5 20a4.466 4.466 0 0 1-3.896-2.459C18.087 18.889 17.117 20 16 20s-2.087-1.112-2.604-2.459A4.458 4.458 0 0 1 9.5 20c-2.636 0-4.322-2.1-4.392-2.191a.5.5 0 0 1 .127-.734.495.495 0 0 1 .265-.076 5.236 5.236 0 0 0 3.65-1.626l.7.711a6.512 6.512 0 0 1-3.235 1.802A4.678 4.678 0 0 0 9.5 18.998c2.424 0 3.5-2.536 3.5-3.5a.498.498 0 0 1 .5-.5.498.498 0 0 1 .5.5c0 1.603 1.084 3.5 2 3.5s2-1.897 2-3.5a.498.498 0 0 1 .5-.5.498.498 0 0 1 .5.5c0 .964 1.076 3.5 3.5 3.5a4.675 4.675 0 0 0 2.882-1.111c-2.76-.555-4.244-3.018-4.313-3.135l.86-.509c.017.027 1.673 2.755 4.57 2.755a.495.495 0 0 1 .449.282.5.5 0 0 1-.057.528c-.07.09-1.757 2.191-4.392 2.191z"/><path d="M27.5 23c-5.642 0-7.286-1.579-7.354-1.646l.7-.713c.013.012 1.191 1.07 5.038 1.311a8.952 8.952 0 0 1-2.332-2.728l.895-.447c.921 1.843 3.286 3.28 3.31 3.295a.502.502 0 0 1 .046.826.5.5 0 0 1-.302.102z"/><path d="M22 24c-3.71 0-5.316-1.122-6-1.972-.684.849-2.29 1.972-6 1.972a.5.5 0 0 1-.3-.899c.072-.055 1.8-1.418 1.8-4.6h1a7.474 7.474 0 0 1-1.327 4.457c3.861-.3 4.334-2.046 4.338-2.064a.492.492 0 0 1 .5-.387.494.494 0 0 1 .48.396c.003.011.476 1.756 4.337 2.055a7.467 7.467 0 0 1-1.329-4.457h1c0 3.213 1.782 4.587 1.8 4.6a.499.499 0 0 1-.3.899z"/><path d="M4.5 23a.503.503 0 0 1-.482-.366c-.029-.105-.023-.217.017-.319s.113-.187.207-.243c.024-.014 2.389-1.452 3.31-3.295l.895.447a8.965 8.965 0 0 1-2.333 2.727c3.853-.239 5.02-1.294 5.032-1.305l.707.707c-.068.07-1.711 1.648-7.353 1.648zM17.5 32h-3a1.503 1.503 0 0 1-1.5-1.5v-.933c0-.067.004-.134.013-.2l.778-5.439.99.142-.777 5.436a.417.417 0 0 0-.004.061v.933a.498.498 0 0 0 .5.5h3a.498.498 0 0 0 .5-.5v-.933a.516.516 0 0 0-.005-.067l-.776-5.429.991-.142.777 5.434c.009.067.013.135.014.203v.933a1.507 1.507 0 0 1-.439 1.061 1.496 1.496 0 0 1-1.061.439z"/></symbol><symbol id="icon-flowers-pin-5" viewBox="0 0 32 32"><path d="M16 12a1.495 1.495 0 0 0 1.385-.926 1.496 1.496 0 0 0-.325-1.635 1.5 1.5 0 0 0-2.561 1.059 1.5 1.5 0 0 0 1.5 1.5zm0-2a.5.5 0 1 1 .002.998A.5.5 0 0 1 16 10zM20 7a1.495 1.495 0 0 0 1.385-.926 1.496 1.496 0 0 0-.325-1.635 1.5 1.5 0 0 0-2.561 1.059 1.5 1.5 0 0 0 1.5 1.5zm0-2a.5.5 0 1 1 .002.998A.5.5 0 0 1 20 5zM12 7a1.495 1.495 0 0 0 1.385-.926 1.496 1.496 0 0 0-.326-1.635 1.5 1.5 0 0 0-2.561 1.059 1.5 1.5 0 0 0 1.5 1.5zm0-2a.5.5 0 1 1-.192.962.497.497 0 0 1-.308-.462c0-.133.053-.26.147-.353S11.868 5.001 12 5z"/><path d="M28.446 12.774c-.042-.082-.106-.151-.184-.2s-.169-.074-.261-.074H26.86a2.538 2.538 0 0 0-.354-2.338 2.542 2.542 0 0 0-2.13-1.026 2.458 2.458 0 0 0-.29-.527 2.425 2.425 0 0 0-.197-1.832 2.548 2.548 0 0 0 .989-2.89 2.543 2.543 0 0 0-2.501-1.752A2.544 2.544 0 0 0 20.003.498a2.534 2.534 0 0 0-2.373 1.637 2.49 2.49 0 0 0-1.627.524 2.496 2.496 0 0 0-1.626-.524A2.544 2.544 0 0 0 12.004.498a2.545 2.545 0 0 0-2.373 1.637A2.538 2.538 0 0 0 7.13 3.887a2.547 2.547 0 0 0 .989 2.89 2.425 2.425 0 0 0-.197 1.832c-.118.163-.215.34-.29.527a2.55 2.55 0 0 0-2.626 2.543c.001.279.049.556.141.82H4.006a.506.506 0 0 0-.446.274.503.503 0 0 0 .042.522l9.337 12.776-1.897 4.743a.5.5 0 0 0 .464.685h9a.5.5 0 0 0 .464-.685l-1.897-4.743 9.337-12.776a.503.503 0 0 0 .042-.522zm-4.318-2.598c.107-.027.217-.04.327-.041.41.001.802.164 1.092.453a1.542 1.542 0 0 1 .215 1.912H23.5A1.503 1.503 0 0 0 22 11a1.503 1.503 0 0 0-1.5 1.5h-.434a1.995 1.995 0 0 0-.185-.719 2.613 2.613 0 0 0 1.012-1.394A2.563 2.563 0 0 0 23.5 9.69c.007.028.012.056.017.085a.5.5 0 0 0 .611.401zM22.5 12.5h-1a.498.498 0 0 1 .5-.5.498.498 0 0 1 .5.5zm-4.628-9.324a.513.513 0 0 0 .392-.067.503.503 0 0 0 .219-.331 1.54 1.54 0 0 1 3.034 0 .495.495 0 0 0 .408.405.497.497 0 0 0 .203-.007c.107-.027.217-.041.327-.041a1.538 1.538 0 0 1 1.339 2.313 1.537 1.537 0 0 1-.809.678.513.513 0 0 0-.314.348.504.504 0 0 0 .111.455 1.525 1.525 0 0 1 .206 1.77 1.545 1.545 0 0 1-2.009.65 2.536 2.536 0 0 0-2.604-2.211 2.584 2.584 0 0 0-1.56-1.504 2.564 2.564 0 0 0-.153-2.219 1.455 1.455 0 0 1 1.211-.237zm-.354 4.601a.512.512 0 0 0 .218.331.494.494 0 0 0 .391.068l.008-.001a1.538 1.538 0 0 1 .849 2.95.498.498 0 0 0-.203.802c.149.156.248.353.283.566v.006h-6.13a1.02 1.02 0 0 1 .284-.572.496.496 0 0 0 .111-.455.502.502 0 0 0-.314-.348A1.558 1.558 0 0 1 12 9.649a1.523 1.523 0 0 1 .582-1.181 1.533 1.533 0 0 1 1.283-.295l.008.001a.495.495 0 0 0 .391-.068.503.503 0 0 0 .219-.331 1.542 1.542 0 0 1 1.518-1.259 1.544 1.544 0 0 1 1.518 1.259zM8 4.68c.001-.41.164-.802.453-1.092s.682-.453 1.092-.453c.11 0 .22.014.327.041a.513.513 0 0 0 .392-.067.503.503 0 0 0 .219-.331 1.54 1.54 0 0 1 3.034 0 .495.495 0 0 0 .408.405.497.497 0 0 0 .203-.007 1.453 1.453 0 0 1 1.496.499 1.511 1.511 0 0 1 .121 1.839 2.571 2.571 0 0 0-2.118 1.623 2.533 2.533 0 0 0-2.596 2.179l-.008.033A1.537 1.537 0 0 1 8.83 7.886c.016-.354.153-.693.389-.958a.496.496 0 0 0 .111-.455.502.502 0 0 0-.314-.348A1.547 1.547 0 0 1 8 4.68zm-.128 5.496a.484.484 0 0 0 .392-.068.506.506 0 0 0 .219-.333L8.5 9.69a2.554 2.554 0 0 0 2.602.698c.171.566.53 1.057 1.016 1.392-.109.225-.171.47-.185.719h-.434a1.503 1.503 0 0 0-1.5-1.5 1.503 1.503 0 0 0-1.5 1.5H6.237a1.537 1.537 0 0 1 1.634-2.324zM10.5 12.5h-1a.498.498 0 0 1 .5-.5.498.498 0 0 1 .5.5zm9.262 18h-7.523l1.6-4h4.323l1.6 4zm-1.516-5h-4.492l-8.769-12h22.031l-8.769 12z"/></symbol><symbol id="icon-flowers-pin-4" viewBox="0 0 32 32"><path d="M26.49 21.399a.501.501 0 0 0-.49-.4c-.92.01-1.839.074-2.752.192-2.02.263-3.399.753-4.101 1.455-.733.733-1.263 1.656-1.646 2.608V20.62c.38-.727 1.134-1.879 1.724-2.174a11.121 11.121 0 0 0 3.409-2.688c1.222-1.451 1.868-3.097 1.868-4.76 0-1.264-.127-3.172-.316-4.747a20.777 20.777 0 0 0-.33-2.045c-.111-.481-.279-1.208-.854-1.208-.713 0-1.426.395-2.149 1.193a6.715 6.715 0 0 0-.078-.306c-.082-.288-.254-.887-.772-.887-.879 0-1.668.595-2.352 1.772a2.924 2.924 0 0 0-.148-.147V3.616l.947-1.894a.499.499 0 0 0-.448-.723h-4a.503.503 0 0 0-.499.477.499.499 0 0 0 .052.246l.947 1.894v1.007c-.05.046-.099.096-.148.147-.684-1.177-1.473-1.772-2.352-1.772-.518 0-.69.599-.772.888a6.997 6.997 0 0 0-.079.306c-.725-.798-1.439-1.194-2.149-1.194-.576 0-.743.727-.854 1.208a20.777 20.777 0 0 0-.33 2.045c-.189 1.575-.316 3.483-.316 4.747 0 1.662.646 3.309 1.868 4.759a11.136 11.136 0 0 0 3.409 2.688c.589.295 1.344 1.446 1.724 2.174v4.634c-.383-.953-.913-1.875-1.646-2.608-.702-.702-2.082-1.191-4.101-1.455a23.9 23.9 0 0 0-2.752-.192.499.499 0 0 0-.443.732c.053.102.14.183.246.228.034.015 3.428 1.478 4.843 2.894 1.433 1.433 3.892 5.845 3.916 5.889a.5.5 0 0 0 .437.257h2a.505.505 0 0 0 .437-.257c.025-.044 2.483-4.455 3.916-5.889 1.414-1.414 4.809-2.879 4.844-2.894a.496.496 0 0 0 .292-.56zM16.5 21v9h-1v-9h1zM16 5c.912 0 1.727 1.265 2.302 3.566-.897 2.061-1.692 4.412-2.302 6.405a78.536 78.536 0 0 0-1.028-3.138 49.602 49.602 0 0 0-1.273-3.271c.575-2.299 1.39-3.563 2.301-3.563zm6.771-.971c.11.33.29 1.142.464 2.721.161 1.464.265 3.132.265 4.251 0 3.308-2.969 5.676-4.724 6.553-.606.303-1.176 1.014-1.589 1.636-.164-.633-.39-1.481-.668-2.457.676-2.343 1.721-5.635 2.931-8.287 1.554-3.409 2.685-4.261 3.32-4.416zm-3 .001c.06.177.154.534.266 1.225-.404.62-.77 1.264-1.094 1.929a8.865 8.865 0 0 0-.647-1.506c.36-.724.872-1.488 1.475-1.648zm-4.324-.754L14.809 2h2.382l-.638 1.276a.496.496 0 0 0-.053.224v.562a2.063 2.063 0 0 0-1 0V3.5a.499.499 0 0 0-.053-.224zm-3.217.755c.603.161 1.114.925 1.474 1.648-.261.48-.477.982-.646 1.502a17.582 17.582 0 0 0-1.095-1.926c.111-.687.206-1.046.266-1.224zm.994 13.522C11.469 16.676 8.5 14.308 8.5 11c0-1.118.104-2.787.265-4.251.174-1.576.353-2.388.463-2.719.783.197 2.459 1.506 4.797 8.13 1.143 3.239 2.003 6.513 2.336 7.84H15.3c-.335-.611-1.166-1.991-2.078-2.447zm-1.87 6.594c-.718-.718-1.846-1.424-2.865-1.981 1.442.179 3.002.533 3.658 1.188 1.295 1.295 1.878 3.355 2.14 4.931-.867-1.429-2.051-3.257-2.933-4.139zm9.292 0c-.882.882-2.068 2.712-2.935 4.142.261-1.576.843-3.636 2.142-4.935.655-.655 2.214-1.008 3.657-1.188-1.018.557-2.146 1.262-2.864 1.98z"/></symbol><symbol id="icon-flowers-pin-3" viewBox="0 0 32 32"><path d="M27 8c-.882.013-1.764.076-2.639.19.12-.435.251-.884.391-1.344a1.507 1.507 0 0 0 .747-1.294V4.5a.498.498 0 0 0-.5-.5c-.04 0-.404.001-.986.036.002-.184.002-.365.001-.542A1.501 1.501 0 0 0 22.514 2h-2.009a2.51 2.51 0 0 0-1.999-1H13.57a2.518 2.518 0 0 0-1.999 1h-2.05a1.5 1.5 0 0 0-1.499 1.555l.02.484A18.463 18.463 0 0 0 6.998 4a.498.498 0 0 0-.5.5v1.052a1.504 1.504 0 0 0 .747 1.293c.14.457.27.905.39 1.341A23.274 23.274 0 0 0 4.997 8a.498.498 0 0 0-.5.5v1.052a1.511 1.511 0 0 0 1.109 1.446c.583 1.504.891 2.884.891 4.002 0 1.108.189 2.698 1.091 3.976.841 1.191 2.103 1.861 3.757 1.998-.072.053-.139.11-.202.173-2.616 2.616-2.646 5.243-2.646 5.354a.5.5 0 0 0 .9.3c.015-.02 1.497-1.99 2.954-3.446.619-.619 1.43-1.154 2.146-1.559v2.499l-.854.854a.505.505 0 0 0-.108.544.495.495 0 0 0 .108.162l.854.854v3.793a.498.498 0 0 0 .5.5h2a.498.498 0 0 0 .5-.5v-1.793l.854-.854a.505.505 0 0 0 .108-.544.495.495 0 0 0-.108-.162l-.854-.854v-4.499c.716.406 1.527.94 2.146 1.559 1.456 1.456 2.939 3.427 2.954 3.446a.499.499 0 0 0 .899-.3c0-.111-.03-2.738-2.646-5.354a1.845 1.845 0 0 0-.202-.173c1.654-.136 2.916-.806 3.757-1.998.902-1.278 1.091-2.868 1.091-3.976 0-1.382.462-2.896.89-4.001a1.506 1.506 0 0 0 1.11-1.447V8.5a.498.498 0 0 0-.5-.5zm-6.14.895c-2.159.63-3.788 1.548-4.857 2.719a7.46 7.46 0 0 0-1.323-1.134c3.029-2.558 7.484-3.232 8.955-3.39-.127.431-.245.851-.352 1.257-.817.136-1.626.318-2.423.548zm3.64-3.343a.494.494 0 0 1-.454.498c-.332.021-6.454.461-10.268 3.89l-.026-.014c1.447-4.212 8.757-4.823 10.747-4.911v.537zm-12.351-.92a45.04 45.04 0 0 1-.056-.765c.22.164.453.31.697.435.898.463 1.978.698 3.211.698 1.998 0 3.256-.619 4.001-1.206-.007.272-.017.544-.029.813-.214.049-.431.102-.649.16-1.277.337-2.39.771-3.323 1.295-1.195-.672-2.556-1.125-3.851-1.43zm10.867-1.134c.001.201 0 .409-.002.618a25.54 25.54 0 0 0-2.032.284c.011-.283.02-.567.026-.852a2.597 2.597 0 0 0-.05-.549h1.559a.503.503 0 0 1 .5.498zM13.572 2h4.936a1.513 1.513 0 0 1 1.248.667C19.269 3.194 18.169 4 16 4c-.772 0-2.608-.131-3.709-1.282a1.508 1.508 0 0 1 1.281-.719zM9.023 3.519a.51.51 0 0 1 .14-.366.512.512 0 0 1 .36-.153h1.601a2.517 2.517 0 0 0-.047.648c.015.258.033.515.052.77a25.5 25.5 0 0 0-2.079-.296c-.01-.2-.019-.401-.027-.602zM7.5 5.014c1.29.056 4.817.331 7.536 1.67a7.319 7.319 0 0 0-.893.775c-2.915-1.155-6.039-1.399-6.187-1.41a.493.493 0 0 1-.455-.497v-.538zm.867 2.082c.934.108 3.066.419 5.107 1.178-.26.379-.472.789-.63 1.221-1.363-.58-2.833-.935-4.129-1.152a44.175 44.175 0 0 0-.349-1.246zM5.5 9.014c1.724.076 7.441.542 9.881 3.405a5.713 5.713 0 0 0-.36.65c-3.171-2.554-8.864-3.005-9.066-3.02a.494.494 0 0 1-.456-.498v-.537zm2.909 9.385C7.658 17.335 7.5 15.963 7.5 15c0-1.127-.259-2.423-.771-3.859 1.742.231 5.742.957 7.936 2.938l.003-.003a5.997 5.997 0 0 0-.168 1.425c0 1.117.283 2.238.876 3.173-.79.869-1.948 1.327-3.376 1.327-1.633 0-2.842-.539-3.591-1.601zm3.237 4.247a29.764 29.764 0 0 0-1.562 1.708 8.649 8.649 0 0 1 1.769-2.501c.285-.285.915-.488 1.636-.625-.635.394-1.297.873-1.843 1.418zm5 4.208.646.646-.646.646a.505.505 0 0 0-.146.353v1.5h-1v-3.5a.497.497 0 0 0-.146-.353l-.646-.646.646-.646a.505.505 0 0 0 .146-.353v-3.227c.208-.1.38-.177.5-.23.12.052.292.13.5.23v5.227a.497.497 0 0 0 .146.353zm5.269-2.499a29.433 29.433 0 0 0-1.562-1.708c-.545-.545-1.208-1.024-1.843-1.418.721.136 1.35.34 1.636.625a8.649 8.649 0 0 1 1.769 2.501zM16 20c-.084 0-.314.002-.634.016a4.67 4.67 0 0 0 .636-.547c.196.201.409.384.637.548a13.864 13.864 0 0 0-.639-.016zm7.591-1.601C22.841 19.462 21.633 20 20 20c-3.23 0-4.433-2.292-4.497-4.328 1.726-2.123 4.448-3.262 6.448-3.845a22.277 22.277 0 0 1 3.322-.694c-.513 1.438-.773 2.736-.773 3.866 0 .964-.158 2.335-.909 3.399zM26.5 9.552a.494.494 0 0 1-.454.498c-.351.022-6.503.465-10.313 3.93.61-1.867 2.415-3.249 5.389-4.119 2.191-.641 4.412-.805 5.378-.846v.538z"/></symbol><symbol id="icon-flowers-pin-2" viewBox="0 0 32 32"><path d="M28.503 6.603a.509.509 0 0 0-.41-.262 7.725 7.725 0 0 0-1.097.009 2.494 2.494 0 0 0-1.216-2.567 2.483 2.483 0 0 0-2.829.244 7.597 7.597 0 0 0-.533-.963.518.518 0 0 0-.432-.225.508.508 0 0 0-.419.25l-.558.966-3.496-2.996a2.386 2.386 0 0 0-3.026-.001l-3.496 2.996-.558-.966a.506.506 0 0 0-.419-.25.516.516 0 0 0-.432.224c-.2.308-.378.629-.532.962a2.488 2.488 0 0 0-2.83-.242 2.494 2.494 0 0 0-1.216 2.567 7.889 7.889 0 0 0-1.098-.01.498.498 0 0 0-.47.506.49.49 0 0 0 .067.242l1.604 2.779a.485.485 0 0 0-.093.233c-.058.59.095 1.181.433 1.668l6.505 9.335a1.483 1.483 0 0 0-.953 1.395v2.225a1.501 1.501 0 0 0 1.974 1.423l.232-.077-1.191 4.808a.49.49 0 0 0 .266.57c.068.033.143.05.219.05h7a.502.502 0 0 0 .489-.395.489.489 0 0 0-.004-.225l-1.191-4.808.232.077c.154.052.316.078.479.079a1.503 1.503 0 0 0 1.495-1.502v-2.225a1.489 1.489 0 0 0-.953-1.395l6.504-9.335a2.492 2.492 0 0 0 .429-1.737.496.496 0 0 0-.07-.197l1.585-2.746a.492.492 0 0 0 .008-.486zm-3.222-1.946a1.49 1.49 0 0 1 .638 1.855 7.655 7.655 0 0 0-2.233.889 7.718 7.718 0 0 0-.336-2.358 1.499 1.499 0 0 1 1.931-.387zM22 4.341a6.726 6.726 0 0 1 .64 3.802 7.81 7.81 0 0 0-1.71 2.052l-.599 1.037c-.108.041-.22.086-.33.129V7.804L22 4.341zm-6.862-2.522a1.363 1.363 0 0 1 1.724.001L20.5 4.938l-.5.867v-.304a.49.49 0 0 0-.237-.426.5.5 0 0 0-.486-.022 7.727 7.727 0 0 0-.944.569A2.493 2.493 0 0 0 16.006 4a2.488 2.488 0 0 0-2.333 1.612 7.71 7.71 0 0 0-.948-.56.499.499 0 0 0-.723.448v.304l-.5-.867 3.638-3.118zm1.406 7.522A6.721 6.721 0 0 1 19 6.367v5.401c-.653.278-1.321.587-2 .935v-.731a7.76 7.76 0 0 0-.456-2.631zm-2.023-3.049a1.49 1.49 0 0 1 2.466-.919c.272.239.447.569.493.928a7.718 7.718 0 0 0-1.472 1.876 7.712 7.712 0 0 0-1.487-1.885zM16 11.972v1.268c-.189.106-.379.219-.569.331A32.376 32.376 0 0 0 13 12.278V6.365a6.694 6.694 0 0 1 3 5.606zm-5.999-7.631 2 3.463v3.999l-.929-1.608a7.79 7.79 0 0 0-1.71-2.051 6.725 6.725 0 0 1 .639-3.804zM6.02 5.567a1.492 1.492 0 0 1 1.152-1.081 1.496 1.496 0 0 1 1.479.555 7.714 7.714 0 0 0-.337 2.362 7.68 7.68 0 0 0-2.232-.89 1.483 1.483 0 0 1-.063-.946zM4.804 7.339a6.69 6.69 0 0 1 5.401 3.356l.287.496a37.658 37.658 0 0 0-4.261-1.38L4.804 7.339zm7.854 17.862a.498.498 0 0 1-.657-.473v-2.225a.5.5 0 0 1 .424-.494.498.498 0 0 1 .233.02l1.642.547c-.103.168-.18.349-.229.54H13.5a.498.498 0 0 0-.5.5.498.498 0 0 0 .5.5h.571c.049.19.126.372.229.54l-1.642.547zm6.203 5.299h-5.722l1.19-4.803.829-.276a1.933 1.933 0 0 0 1.684 0l.829.276 1.19 4.803zM15 23.613c0-.198.059-.391.168-.556s.266-.293.449-.368a.995.995 0 0 1 1.09.217 1.003 1.003 0 0 1 .217 1.09 1.004 1.004 0 0 1-.924.618 1.003 1.003 0 0 1-1-1zm5 1.113a.5.5 0 0 1-.424.494.498.498 0 0 1-.233-.02l-1.642-.547c.103-.168.18-.35.229-.54h.571a.498.498 0 0 0 .5-.5.498.498 0 0 0-.5-.5h-.571a1.978 1.978 0 0 0-.229-.54l1.642-.547a.501.501 0 0 1 .659.475v2.225zm-1.207-3.57-1.952.65a1.944 1.944 0 0 0-1.684 0l-1.951-.65-6.938-9.957a1.458 1.458 0 0 1-.194-.396c2.886.75 9.805 2.993 14.341 8.023l-1.623 2.329zm6.938-9.957-4.724 6.78a23.696 23.696 0 0 0-4.612-3.813 31.403 31.403 0 0 1 9.563-3.475 1.498 1.498 0 0 1-.228.507zm.103-1.501c-1.374.254-2.73.598-4.059 1.03l.02-.034a6.702 6.702 0 0 1 5.401-3.355l-1.362 2.359z"/></symbol><symbol id="icon-flowers-pin-1" viewBox="0 0 32 32"><path d="M31.209 16.554c-.016-.141-.423-3.488-2.665-4.727a3.797 3.797 0 0 0-.624-.271c.179-.276.326-.572.437-.883.813-2.363-.574-5.006-3.107-6.049a5.166 5.166 0 0 0-.315-.126h-.006a5.52 5.52 0 0 0-3.923.088 4.89 4.89 0 0 0-.97.544c-1.027-3.641-5.042-3.558-5.092-3.556-1.414.03-2.779.549-3.719 1.384a3.804 3.804 0 0 0-.29-.472C9.394.44 6.023.507 5.881.51a.525.525 0 0 0-.487.367c-.039.124-.853 2.818.175 4.842a5.465 5.465 0 0 0-2.682 2.454 4.46 4.46 0 0 0-.325 3.421c.194.597.516 1.144.944 1.603-.177.082-.342.188-.509.288-1.53.921-1.982 3.034-2.135 4.114h.004a8.473 8.473 0 0 0-.081.839h.006a.518.518 0 0 0 .339.504 8.826 8.826 0 0 0 2.733.467 4.727 4.727 0 0 0 2.686-.73c.168-.116.326-.246.473-.389.381.77.969 1.418 1.699 1.871.152.091.309.174.469.25.324.424.626.866.904 1.322-1.347-.669-2.732-.562-3.305.325a1.905 1.905 0 0 0 .053 1.922 2.006 2.006 0 0 0-1.336 1.724c0 1.177 1.383 2.098 3.148 2.098a3.926 3.926 0 0 0 2.413-.739 3.388 3.388 0 0 1-1.6 2.369.525.525 0 0 0-.136.838 6.165 6.165 0 0 0 2.565 1.276l.033.009c1.156.308 2.349.457 3.545.444a13.197 13.197 0 0 0 3.543-.442l.033-.009a6.163 6.163 0 0 0 2.566-1.276.523.523 0 0 0-.136-.839c-1.198-.599-1.611-2.066-1.746-3.2l.065-.016a.526.526 0 0 0 .382-.636.518.518 0 0 0-.509-.387v-.013c0-1.188.588-2.644 1.691-4.221.053 0 .108.007.163.007a4.774 4.774 0 0 0 4.628-3.071c.03-.086.052-.175.075-.262.457.136.932.204 1.41.202a8.558 8.558 0 0 0 3.275-.749.526.526 0 0 0 .296-.534zM22.096 6.295a1.622 1.622 0 0 1 1.626-.954c.295.001.587.051.866.147h.003l.016.006c1.083.381 1.738 1.351 1.456 2.167a1.237 1.237 0 0 1-.293.454 1.573 1.573 0 0 0-.323-.802 2.543 2.543 0 0 0-1.198-.831 2.117 2.117 0 0 0-2.203.344 1.2 1.2 0 0 1 .048-.532zm2.633 2.019a.432.432 0 0 1-.314.214 1.383 1.383 0 0 1-.604.004c-.079-.02-.158-.036-.238-.063h-.006l-.006-.003c-.082-.029-.158-.066-.235-.101-.438-.224-.641-.561-.581-.734.047-.135.28-.252.611-.252.188.003.374.035.552.098.276.088.521.253.706.475a.43.43 0 0 1 .115.363zm-5.301-.717a3.41 3.41 0 0 1 1.837-1.975 2.152 2.152 0 0 0-.161.331c-.472 1.367.481 2.938 2.121 3.505.148.051.299.09.453.116.244.055.494.084.745.088a2.674 2.674 0 0 0 2.632-1.658 2.16 2.16 0 0 0 .085-.344c.436.822.517 1.787.225 2.671a3.593 3.593 0 0 1-2.959 2.301 5.741 5.741 0 0 0-1.37-.787 3.833 3.833 0 0 0-.304-.119 5.692 5.692 0 0 0-2.208-.304 3.654 3.654 0 0 1-1.096-3.826zm1.164 6.027a1.59 1.59 0 0 0-.748.432 1.22 1.22 0 0 1 .049-.537c.154-.399.483-.706.892-.829.238-.083.489-.125.741-.124.295.001.587.052.866.149.384.129.733.346 1.019.634.036.075.09.14.157.189.322.369.434.877.298 1.348a1.208 1.208 0 0 1-.296.453 1.589 1.589 0 0 0-.322-.802 2.69 2.69 0 0 0-2.655-.914zm1.936 1.916c-.059.174-.427.314-.911.22-.082-.023-.165-.039-.247-.068v.002h-.004l-.006-.003c-.082-.028-.157-.066-.234-.101-.438-.224-.641-.561-.581-.734a.431.431 0 0 1 .315-.214c.097-.025.197-.037.298-.036.188.002.374.034.551.097.276.088.521.252.706.474a.431.431 0 0 1 .116.363zm-12.459-1.261a1.573 1.573 0 0 0-.453.738 1.223 1.223 0 0 1-.21-.498c-.056-.424.088-.85.388-1.154v.002c.377-.401.88-.662 1.425-.741.149-.024.3-.037.451-.037a2.33 2.33 0 0 1 1.138.281c.382.192.654.549.738.967.027.181.014.365-.041.539a1.576 1.576 0 0 0-.666-.554 2.688 2.688 0 0 0-2.77.456zm1.919 1.388c-.085.022-.169.048-.257.063v.002c-.087.014-.172.016-.258.023a1.37 1.37 0 0 1-.589-.105c-.158-.07-.259-.169-.274-.262a.43.43 0 0 1 .174-.339c.22-.188.489-.309.776-.349a1.8 1.8 0 0 1 .293-.024c.19-.004.378.032.553.105.158.071.258.169.274.262.029.18-.225.477-.693.625zm.388-4.137c.137-.318.24-.651.305-.991.717.307 1.49.465 2.27.462a5.547 5.547 0 0 0 3.424-1.146c.183.649.497 1.255.923 1.778a5.369 5.369 0 0 0-.494.176 4.515 4.515 0 0 0-2.336 2.131v.002a4.656 4.656 0 0 0-1.559-1.607 5.383 5.383 0 0 0-2.532-.805zm2.575-8.923c1.158 0 2.099.706 2.099 1.574a1.23 1.23 0 0 1-.127.519 2.117 2.117 0 0 0-1.972-1.044A2.116 2.116 0 0 0 12.979 4.7a1.217 1.217 0 0 1-.126-.519c0-.868.941-1.574 2.098-1.574zM16 5.231c0 .183-.301.435-.787.505-.087.008-.172.019-.262.019s-.174-.011-.262-.019c-.486-.07-.787-.323-.787-.505 0-.214.408-.524 1.049-.524S16 5.018 16 5.231zm-4.165-1.402c-.02.116-.031.234-.032.352 0 1.446 1.412 2.623 3.147 2.623s3.148-1.177 3.148-2.623a2.088 2.088 0 0 0-.035-.37 3.442 3.442 0 0 1 1.063 2.179 4.265 4.265 0 0 0-.923 2.598 4.463 4.463 0 0 1-3.252 1.364 4.572 4.572 0 0 1-2.201-.557 4.213 4.213 0 0 0-.19-.982 4.371 4.371 0 0 0-1.794-2.335 3.439 3.439 0 0 1 1.069-2.249zm-5.534-2.26c.848.046 2.851.291 3.797 1.548.158.219.285.459.376.713a4.54 4.54 0 0 0-.549 1.102 4.874 4.874 0 0 0-1.48-1.679.524.524 0 1 0-.629.839c.467.329.856.755 1.142 1.249a5.606 5.606 0 0 0-2.367.041c-.734-1.258-.464-3.041-.291-3.813zm.088 4.96v.002c.02-.007.039-.016.061-.022l.056-.015c.246-.075.502-.114.759-.116a1.644 1.644 0 0 1 1.661.992c.052.175.066.359.037.539a1.592 1.592 0 0 0-.738-.452 2.555 2.555 0 0 0-1.457.049 2.117 2.117 0 0 0-1.563 1.593 1.214 1.214 0 0 1-.277-.457c-.258-.813.397-1.747 1.462-2.113zM7.65 9.404c-.082.034-.161.072-.247.099v.002c-.086.027-.171.042-.257.06-.484.082-.847-.068-.902-.241-.065-.204.23-.624.839-.819a1.72 1.72 0 0 1 .523-.086c.349 0 .594.126.638.267.056.174-.154.504-.595.718zm-1.008 7.697c0 .013.006.025.008.038-.189.262-.42.49-.685.674-1.304.889-3.282.483-4.098.258a7.34 7.34 0 0 1 .058-.449c.002-.021.004-.04.004-.06h.004c.153-.936.64-2.605 1.661-3.214.256-.168.538-.294.833-.372.449.286.94.498 1.456.629a11.916 11.916 0 0 0-2.317 1.811.526.526 0 1 0 .742.742 10.75 10.75 0 0 1 2.413-1.821 4.296 4.296 0 0 0-.079 1.763zm.855-3.39a4.163 4.163 0 0 1-2.686-.738 3.332 3.332 0 0 1-1.248-1.695 3.415 3.415 0 0 1 .257-2.623c.008-.017.019-.031.027-.048.016.119.042.236.078.351A2.693 2.693 0 0 0 6.6 10.679c.232-.002.463-.027.689-.074.293-.046.577-.136.842-.269a3.415 3.415 0 0 0 1.446-1.189 2.413 2.413 0 0 0 .346-2.099 2.214 2.214 0 0 0-.154-.336 3.405 3.405 0 0 1 1.789 2.018 3.465 3.465 0 0 1-.387 2.842c-.042.006-.084.008-.126.015a5.522 5.522 0 0 0-3.417 1.941c-.048.06-.089.123-.134.184zm1.788 5.563a3.43 3.43 0 0 1-1.61-2.344 3.34 3.34 0 0 1 .412-2.204c.105-.035.169-.053.172-.053a.502.502 0 0 0 .105-.049c.003.022.003.043.007.065A2.417 2.417 0 0 0 9.63 16.4a3.385 3.385 0 0 0 1.653.416c.207-.001.414-.018.619-.052.139-.024.276-.058.411-.102a3.403 3.403 0 0 0 1.626-.973 2.411 2.411 0 0 0 .644-2.025 2.241 2.241 0 0 0-.088-.343 3.399 3.399 0 0 1 1.464 2.243c.329 1.998-1.259 3.929-3.544 4.305a4.472 4.472 0 0 1-3.131-.595zm-.629 7.48c-1.201 0-2.098-.554-2.098-1.049s.897-1.049 2.098-1.049 2.099.554 2.099 1.049c0 .495-.898 1.049-2.099 1.049zm0-3.147c-.262 0-.523.022-.781.065a1.06 1.06 0 0 1-.2-1.049h.001c.269-.416 1.324-.392 2.333.259a3.13 3.13 0 0 1 1.113 1.18c.035.136.068.272.091.408a3.785 3.785 0 0 0-2.557-.863zm11.662 6.305c-.44.241-.904.433-1.386.574a3.305 3.305 0 0 1-1.894-2.263.524.524 0 1 0-1.028.207 4.016 4.016 0 0 0 1.474 2.374 13.942 13.942 0 0 1-4.018 0 4.012 4.012 0 0 0 1.474-2.371.524.524 0 1 0-1.028-.206 3.304 3.304 0 0 1-1.894 2.261 6.928 6.928 0 0 1-1.385-.574c1.055-.9 1.462-2.329 1.613-3.471 1.066.196 2.146.3 3.23.312a18.922 18.922 0 0 0 3.23-.315c.15 1.144.557 2.573 1.612 3.473zm-1.695-4.732v.209a18.169 18.169 0 0 1-3.148.315 18.179 18.179 0 0 1-3.148-.315v-.209c0-1.479-.696-2.997-1.494-4.254.263.038.528.057.794.057a5.725 5.725 0 0 0 1.547-.211c.479.867.73 1.842.728 2.834a.524.524 0 1 0 1.048 0 6.865 6.865 0 0 0-.787-3.205 5.229 5.229 0 0 0 2.406-2.331c.016.03.028.061.045.091.238.421.533.807.876 1.148a6.896 6.896 0 0 0-1.491 4.297.525.525 0 0 0 1.049 0 5.91 5.91 0 0 1 1.252-3.63 5.831 5.831 0 0 0 1.896.831c-1.045 1.6-1.574 3.069-1.574 4.372zm6.539-7.626c-.659 1.914-2.974 2.859-5.164 2.104a4.474 4.474 0 0 1-2.469-2.011 3.34 3.34 0 0 1 1.534-4.801 2.298 2.298 0 0 0-.161.331c-.472 1.368.481 2.938 2.122 3.506.149.051.302.091.459.117.242.054.49.083.739.087 1.142.067 2.2-.6 2.633-1.659.038-.112.066-.227.085-.344.436.822.517 1.788.223 2.671zm1.225-.969a4.612 4.612 0 0 0-.592-2.336 4.38 4.38 0 0 1 1.377.81.524.524 0 0 0 .742-.742 5.633 5.633 0 0 0-1.873-1.101 4.7 4.7 0 0 0 1.133-.764c.301.053.592.151.863.293 1.379.762 1.901 2.711 2.066 3.544-.722.273-2.386.783-3.715.296z"/></symbol><symbol id="icon-guarantee-5" viewBox="0 0 32 32"><path fill="#4b64aa" style="fill:var(--color3,#4b64aa)" d="m30.013 25.931-3.585-2.058a.508.508 0 0 0-.58.061.51.51 0 0 0-.122.166c-1.524 3.381-1.456 3.048-1.456 3.705a3.199 3.199 0 0 0 4.301 3 3.218 3.218 0 0 0 2.077-2.538c.159-1.123-.331-2.161-.637-2.336zM9 8H2A1.5 1.5 0 0 0 .5 9.5V15A1.5 1.5 0 0 0 2 16.5h7a1.5 1.5 0 0 0 1.5-1.5V9.5A1.5 1.5 0 0 0 9 8z"/><path fill="#b166db" style="fill:var(--color4,#b166db)" d="M16.5 6a2.5 2.5 0 1 0 0-5 2.5 2.5 0 0 0 0 5z"/><path fill="#4b64aa" style="fill:var(--color3,#4b64aa)" d="M13.484 25.95H8.068a.504.504 0 0 0-.461.307.496.496 0 0 0-.038.19v1.192a3.206 3.206 0 0 0 6.412 0v-1.192a.496.496 0 0 0-.498-.497z"/><path fill="#95d6a4" style="fill:var(--color5,#95d6a4)" d="M28.97 23.216c-1.483-.852-3.144-.535-3.392-.218l-2.604 3.336c-.31.396.046 1.632.297 2.159a.493.493 0 0 0 .409.281.501.501 0 0 0 .449-.212c1.248-1.796 4.2-2.577 6.157-1.647a.496.496 0 0 0 .709-.495 4.048 4.048 0 0 0-2.026-3.206z"/><path fill="#b166db" style="fill:var(--color4,#b166db)" d="M21.102 10.989c-2.643-.751-3.623-1.578-4.375-2.42a1.851 1.851 0 0 0-1.008-1.906 1.822 1.822 0 0 0-2.213.515 1.82 1.82 0 0 0-.348.733l-1.435 6.855a1.484 1.484 0 0 0 .712 1.593c.18.104.38.17.586.192l2.458.272a.495.495 0 0 1 .444.521l-.443 7.499a.496.496 0 0 0 .497.528h1.996a.498.498 0 0 0 .495-.446l.917-8.669a1.496 1.496 0 0 0-.963-1.552l-2.45-.914a.5.5 0 0 1-.311-.575l.373-1.607a8.473 8.473 0 0 0 4.932 1.847.495.495 0 0 0 .498-.498v-1.489c0-.108-.035-.214-.101-.3s-.157-.149-.261-.179z"/><path fill="#78c2a4" style="fill:var(--color6,#78c2a4)" d="M25.499 19.374c-1.074-.712-1.876-2.523-1.998-4.429h.957a1.497 1.497 0 0 0 1.496-1.491v-.993a1.494 1.494 0 0 0-1.496-1.491h-3.492a.495.495 0 0 0-.498.498v12.907h-4.189a.395.395 0 0 1-.224-.066c-.959-.648-1.931-1.817-1.117-3.707a.495.495 0 0 0-.221-.635.501.501 0 0 0-.236-.06H8.13a.499.499 0 0 0-.408.214c-.292.42-2.837 4.17-2.139 6.347a1.986 1.986 0 0 0 1.767 1.386h15.191c.5 0 4.315-3.426 4.285-6.068a2.957 2.957 0 0 0-1.327-2.412z"/><path fill="#95d6a4" style="fill:var(--color5,#95d6a4)" d="M14.481 17.425H6.499a.504.504 0 0 0-.498.5 2.981 2.981 0 0 0 2.977 2.977h5.502a.495.495 0 0 0 .498-.498v-2.482a.495.495 0 0 0-.498-.498z"/></symbol><symbol id="icon-guarantee-4" viewBox="0 0 32 32"><path fill="#78c2a4" style="fill:var(--color6,#78c2a4)" d="M30.226 18.122a.624.624 0 0 0-.732.495C28.252 25.065 22.576 29.744 16 29.744c-6.438 0-12.012-4.485-13.41-10.722l.163.163a.623.623 0 0 0 .884 0 .625.625 0 0 0 0-.884l-1.285-1.285a.625.625 0 0 0-.884 0L.183 18.301a.625.625 0 0 0 .884.884l.231-.231C2.693 25.937 8.859 30.994 16 30.994c7.175 0 13.366-5.106 14.721-12.141a.625.625 0 0 0-.495-.732zM31.817 12.815a.625.625 0 0 0-.884 0l-.231.231C29.307 6.063 23.141 1.006 16 1.006c-7.175 0-13.366 5.106-14.721 12.141a.625.625 0 0 0 1.227.237C3.748 6.936 9.423 2.257 16 2.257c6.438 0 12.012 4.485 13.41 10.722l-.163-.163a.625.625 0 0 0-.884.884l1.285 1.285a.625.625 0 0 0 .884 0l1.285-1.285a.625.625 0 0 0 0-.884z"/><path fill="#bf7fe3" style="fill:var(--color7,#bf7fe3)" d="M17.101 19.936a.797.797 0 0 0 .31.064.841.841 0 0 0 .78-.563l2.322-6.213c.171-.458-.039-.978-.47-1.16s-.918.041-1.09.5l-2.322 6.213c-.171.458.039.978.47 1.16zM22.025 13.786h2.026l-2.155 4.961a.898.898 0 0 0 .453 1.177.881.881 0 0 0 1.163-.458l2.699-6.214c.12-.276.094-.595-.069-.848s-.441-.405-.739-.405h-3.378c-.487 0-.882.4-.882.893s.395.893.882.893zM10.969 17.727c.145.272.41.439.695.439h1.997l-.007.933c-.004.493.355.896.8.901h.007c.443 0 .803-.395.807-.885l.007-.953c.407-.046.724-.426.724-.888 0-.458-.312-.835-.713-.887.007-1.454.01-2.917-.006-3.136-.043-.574-.36-1.044-.808-1.198s-.917.032-1.258.494c-.32.434-1.685 3.149-2.257 4.296a.973.973 0 0 0 .012.885zm2.708-2.594-.005 1.247h-.634c.224-.442.442-.868.639-1.247zM9.985 19.984a.881.881 0 0 0 .872-.89.88.88 0 0 0-.883-.868h-.011c-.484.006-.992.011-1.451.013.318-.428.726-.99 1.241-1.723.407-.578.672-1.128.79-1.634a1.82 1.82 0 0 0 .053-.435 2.459 2.459 0 0 0-4.866-.473.883.883 0 0 0 1.733.339.689.689 0 0 1 1.364.09l-.015.12c-.053.201-.184.526-.507.985-.971 1.382-1.551 2.137-1.862 2.543-.399.52-.619.807-.472 1.283a.92.92 0 0 0 .591.597c.118.039.212.07 1.419.07.474 0 1.119-.005 2.004-.016z"/></symbol><symbol id="icon-guarantee-3" viewBox="0 0 32 32"><path fill="#ffcdbf" style="fill:var(--color8,#ffcdbf)" d="M22.303 25.149a1.403 1.403 0 0 0-1.399-1.445h-.003.117a1.378 1.378 0 1 0-.002-2.758H15.27a.236.236 0 0 1-.224-.309l.504-1.537c.429-1.308.353-2.199.353-3.732a1.632 1.632 0 0 0-3.25-.214c-.118.898-.198 2.495-1.683 3.925l-1.048 1.009a3.134 3.134 0 0 1-2.173.876H6.372v9.059h1.127c2.001-.001 1.818 1.98 4.306 1.978h8.469a1.38 1.38 0 0 0 0-2.758h.243c.75 0 1.39-.583 1.415-1.332a1.38 1.38 0 0 0-1.378-1.427h.335c.75 0 1.391-.584 1.415-1.334z"/><path fill="#ffbeab" style="fill:var(--color9,#ffbeab)" d="M20.274 30.39h-8.469c-2.488.002-2.305-1.979-4.306-1.978H6.372v1.61h1.127c2.001-.001 1.818 1.98 4.306 1.978h8.469a1.38 1.38 0 0 0 1.118-2.184c-.25.347-.657.574-1.118.574z"/><path fill="#95d6a4" style="fill:var(--color5,#95d6a4)" d="M5.98 20.15H.756a.714.714 0 0 0-.714.714v9.437c0 .394.319.714.714.714H5.98c.394 0 .714-.32.714-.714v-9.437a.714.714 0 0 0-.714-.714z"/><path fill="#78c2a4" style="fill:var(--color6,#78c2a4)" d="M1.974 30.3v-9.437c0-.394.32-.714.714-.714H.756a.714.714 0 0 0-.714.714V30.3c0 .394.319.714.714.714h1.932a.714.714 0 0 1-.714-.714z"/><path fill="#feca57" style="fill:var(--color10,#feca57)" d="M7.568 7.473a.32.32 0 0 0-.182-.549l-2.08-.296a.327.327 0 0 1-.247-.176l-.93-1.846a.332.332 0 0 0-.589 0l-.93 1.846a.327.327 0 0 1-.247.176l-2.08.296a.32.32 0 0 0-.182.549L1.606 8.91a.32.32 0 0 1 .095.285l-.355 2.029c-.046.263.236.463.477.339l1.861-.958a.335.335 0 0 1 .305 0l1.861.958c.241.124.522-.076.477-.339l-.356-2.029a.318.318 0 0 1 .095-.285l1.505-1.437z"/><path fill="#f4b537" style="fill:var(--color11,#f4b537)" d="M3.971 8.823a.32.32 0 0 0-.094-.285L2.372 7.101a.316.316 0 0 1 .022-.479l-.031.006-2.08.296a.32.32 0 0 0-.182.549L1.606 8.91c.077.074.113.18.094.285l-.355 2.03c-.046.263.235.463.476.339l1.836-.946.314-1.794zM2.553 6.552l2.08-.296a.327.327 0 0 0 .242-.167l-.747-1.484a.332.332 0 0 0-.589 0l-.93 1.846a.32.32 0 0 1-.089.108.388.388 0 0 1 .033-.007z"/><path fill="#feca57" style="fill:var(--color10,#feca57)" d="M28.993 7.473a.32.32 0 0 0-.182-.549l-2.08-.296a.325.325 0 0 1-.247-.176l-.93-1.846a.332.332 0 0 0-.589 0l-.93 1.846a.327.327 0 0 1-.247.176l-2.08.296a.32.32 0 0 0-.182.549l1.505 1.437a.32.32 0 0 1 .095.285l-.355 2.029c-.046.263.236.463.476.339l1.861-.958a.337.337 0 0 1 .306 0l1.86.958c.241.124.522-.076.477-.339l-.355-2.029a.32.32 0 0 1 .094-.285l1.505-1.437z"/><path fill="#f4b537" style="fill:var(--color11,#f4b537)" d="M25.396 8.823a.32.32 0 0 0-.094-.285l-1.505-1.437a.317.317 0 0 1 .021-.479c-.01.002-.02.005-.031.006l-2.08.296a.32.32 0 0 0-.182.549L23.03 8.91c.077.074.113.18.094.285l-.355 2.03c-.046.263.236.463.477.339l1.836-.946.314-1.794zM23.978 6.552l2.08-.296a.327.327 0 0 0 .242-.167l-.747-1.484a.332.332 0 0 0-.589 0l-.93 1.846a.32.32 0 0 1-.089.108.388.388 0 0 1 .033-.007z"/><path fill="#feca57" style="fill:var(--color10,#feca57)" d="M20.584 4.926a.517.517 0 0 0-.294-.887l-3.364-.479a.532.532 0 0 1-.4-.284L15.022.29a.536.536 0 0 0-.952 0l-1.504 2.986a.527.527 0 0 1-.4.284l-3.363.479a.517.517 0 0 0-.294.887l2.434 2.324c.125.12.182.292.153.46l-.575 3.281c-.074.425.381.749.771.548L14.3 9.99a.538.538 0 0 1 .494 0l3.008 1.549c.389.2.845-.124.77-.548l-.574-3.281a.512.512 0 0 1 .153-.46l2.434-2.324z"/><path fill="#f4b537" style="fill:var(--color11,#f4b537)" d="M14.438 3.189a.533.533 0 0 0 .4-.284l.751-1.49-.566-1.124a.536.536 0 0 0-.952 0l-1.504 2.986a.526.526 0 0 1-.19.207l2.061-.293zM12.792 10.62l.574-3.281a.512.512 0 0 0-.153-.46l-2.434-2.324a.515.515 0 0 1 .079-.808l-2.056.293a.517.517 0 0 0-.294.887l2.434 2.324c.125.12.182.292.153.46l-.575 3.281c-.074.425.381.749.771.548l1.497-.771a.5.5 0 0 1 .004-.149z"/><path fill="#ffbeab" style="fill:var(--color9,#ffbeab)" d="M18.064 25.839c0 .356.288.644.644.644h2.181c.735 0 1.363-.56 1.411-1.288h-3.592a.644.644 0 0 0-.644.644zM18.064 23.059c0 .356.288.644.644.644h2.311a1.38 1.38 0 0 0 1.375-1.288h-3.686a.644.644 0 0 0-.644.644zM21.928 27.953h-3.22a.644.644 0 0 0 0 1.288h1.809c.735 0 1.362-.56 1.411-1.288z"/></symbol><symbol id="icon-guarantee-2" viewBox="0 0 32 32"><path fill="#bf7fe3" style="fill:var(--color7,#bf7fe3)" d="m6.643 21.206-.029-.104c-.976-.691-2.101-.781-2.573-.181-.497.631-.083 1.787.926 2.582s2.229.927 2.727.295c.156-.198.222-.447.209-.72-.532-.353-1.009-1.027-1.259-1.872zM4.879 14.517l-.026-.091c-.856-.606-1.843-.685-2.257-.159-.436.554-.073 1.568.812 2.264s1.955.813 2.392.259a.926.926 0 0 0 .183-.631c-.467-.309-.885-.901-1.104-1.642zM3.356 8.47l-.021-.076c-.708-.501-1.524-.566-1.866-.131-.361.458-.06 1.296.671 1.873s1.617.672 1.978.214a.762.762 0 0 0 .151-.522c-.386-.256-.732-.745-.913-1.358zM1.979 3.183l-.018-.065c-.604-.428-1.3-.483-1.593-.112-.308.391-.051 1.106.573 1.598s1.38.574 1.688.183a.654.654 0 0 0 .129-.445c-.33-.218-.625-.636-.779-1.159z"/><path fill="#b166db" style="fill:var(--color4,#b166db)" d="M6.228 23.503c-1.009-.794-1.423-1.95-.926-2.582a.973.973 0 0 1 .379-.288c-.681-.211-1.314-.124-1.639.288-.497.631-.083 1.787.926 2.582.806.635 1.748.846 2.347.583a3.42 3.42 0 0 1-1.087-.583zM4.67 16.531c-.885-.697-1.248-1.711-.812-2.264a.848.848 0 0 1 .269-.221c-.632-.222-1.23-.159-1.529.221-.436.554-.073 1.568.812 2.264.736.58 1.601.757 2.122.481a3.057 3.057 0 0 1-.861-.481zM3.401 10.136c-.732-.576-1.032-1.415-.671-1.873a.68.68 0 0 1 .138-.13c-.57-.243-1.13-.21-1.399.13-.361.458-.06 1.296.671 1.873.65.512 1.421.644 1.838.345a2.567 2.567 0 0 1-.578-.345zM2.202 4.605c-.624-.492-.881-1.207-.573-1.598a.548.548 0 0 1 .052-.056c-.526-.265-1.064-.259-1.312.056-.308.391-.051 1.106.573 1.598.592.466 1.301.563 1.635.239a2.29 2.29 0 0 1-.375-.239z"/><path fill="#bf7fe3" style="fill:var(--color7,#bf7fe3)" d="m12.392 19.17.062-.092a1.053 1.053 0 0 0-.56-.48c-.723-.246-1.618.441-2.06 1.552l.032.103c.25.845.217 1.67-.038 2.256.137.236.329.409.567.49.572.195 1.253-.195 1.731-.918l.005-.24s-.412-.692-.513-1.574.774-1.097.774-1.097z"/><path fill="#bf7fe3" style="fill:var(--color7,#bf7fe3)" d="m14.32 20.267.002-.108c-.74-.939-1.793-1.344-2.416-.903-.656.464-.586 1.69.155 2.738s1.875 1.521 2.531 1.057c.205-.145.339-.365.404-.631-.41-.489-.676-1.271-.676-2.152zM14.526 13.352l.002-.095c-.649-.824-1.573-1.179-2.119-.792-.575.407-.514 1.483.136 2.402s1.645 1.334 2.22.927a.925.925 0 0 0 .355-.553c-.36-.429-.593-1.115-.593-1.888zM14.781 7.122l.001-.079c-.537-.681-1.301-.975-1.752-.655-.476.337-.425 1.226.113 1.986s1.36 1.103 1.836.766a.763.763 0 0 0 .293-.458c-.298-.355-.491-.922-.491-1.561zM14.96 1.661l.001-.067c-.458-.581-1.11-.832-1.495-.559-.406.287-.363 1.046.096 1.695s1.161.941 1.566.654a.653.653 0 0 0 .25-.39c-.254-.303-.419-.787-.419-1.332z"/><path fill="#b166db" style="fill:var(--color4,#b166db)" d="M13.393 21.994c-.74-1.045-.811-2.268-.16-2.735-.49-.232-.977-.252-1.328-.004-.656.464-.587 1.69.155 2.738s1.875 1.521 2.531 1.057l.004-.003c-.428-.202-.858-.565-1.203-1.053zM13.877 14.866c-.624-.881-.705-1.905-.204-2.348-.463-.25-.933-.289-1.265-.054-.575.407-.514 1.483.136 2.402s1.645 1.334 2.22.927a.895.895 0 0 0 .068-.054 2.868 2.868 0 0 1-.955-.873zM14.475 8.374c-.478-.675-.57-1.452-.251-1.853-.429-.284-.884-.352-1.194-.133-.476.337-.425 1.226.113 1.986s1.36 1.103 1.836.766a.675.675 0 0 0 .139-.133 2.489 2.489 0 0 1-.643-.634zM14.894 2.73c-.372-.526-.471-1.124-.279-1.484-.402-.32-.854-.42-1.15-.21-.406.287-.363 1.046.096 1.695s1.161.941 1.566.654a.596.596 0 0 0 .182-.21 2.165 2.165 0 0 1-.416-.444z"/><path fill="#bf7fe3" style="fill:var(--color7,#bf7fe3)" d="M22.515 12.229c.634-.216 1.419.387 1.807 1.361l-.028.091c-.219.741-.19 1.465.033 1.978a.927.927 0 0 1-.497.43c-.667.227-1.503-.453-1.866-1.518s-.116-2.114.551-2.342zM24.835 6.578c.524-.179 1.173.32 1.495 1.126l-.023.075c-.181.613-.157 1.211.027 1.636a.768.768 0 0 1-.411.356c-.552.188-1.243-.374-1.543-1.256s-.096-1.749.456-1.937zM26.772 1.569c.447-.152 1.001.273 1.275.96l-.02.064c-.155.523-.134 1.034.023 1.396a.65.65 0 0 1-.351.303c-.471.16-1.06-.319-1.317-1.071s-.082-1.492.389-1.653z"/><path fill="#b166db" style="fill:var(--color4,#b166db)" d="M23.056 14.571c-.315-.924-.171-1.833.306-2.208-.282-.169-.578-.225-.847-.134-.667.227-.914 1.276-.551 2.342s1.198 1.746 1.866 1.518a.82.82 0 0 0 .244-.134c-.417-.25-.802-.749-1.018-1.385zM25.471 8.515c-.242-.709-.157-1.409.173-1.753-.264-.195-.552-.271-.809-.183-.552.188-.756 1.055-.456 1.937s.991 1.444 1.543 1.256a.7.7 0 0 0 .282-.183c-.302-.223-.574-.603-.734-1.073zM27.474 3.221c-.189-.556-.143-1.105.084-1.418-.25-.223-.535-.32-.786-.234-.471.16-.645.9-.389 1.652s.846 1.232 1.317 1.072a.624.624 0 0 0 .305-.234 1.981 1.981 0 0 1-.531-.838zM22.134 20.253l.032-.103c-.443-1.111-1.338-1.798-2.06-1.552a1.05 1.05 0 0 0-.56.48l.085.128s.761.27.737.88-.523 1.752-.523 1.752l.03.243c.478.722 1.159 1.112 1.731.918.238-.081.429-.254.567-.49-.255-.586-.288-1.411-.038-2.256z"/><path fill="#95d6a4" style="fill:var(--color5,#95d6a4)" d="M20.772 31.256a.476.476 0 0 1-.476-.476c.002-1.481-1.047-2.393-1.057-2.402a.475.475 0 0 1 .613-.728c.057.048 1.399 1.195 1.396 3.132a.476.476 0 0 1-.476.475zM20.585 24.198c.1.003.191.144.151.236-.345.807-.984 1.572-1.86 2.134s-1.838.823-2.715.8c-.1-.003-.191-.144-.151-.236.345-.807.984-1.572 1.86-2.134s1.838-.823 2.715-.8z"/><path fill="#78c2a4" style="fill:var(--color6,#78c2a4)" d="M18.631 25.548a5.06 5.06 0 0 1 1.925-.746c.067-.121.127-.244.18-.368.039-.092-.051-.233-.151-.236-.878-.023-1.839.238-2.715.8s-1.515 1.327-1.86 2.134c-.039.092.051.233.151.236.258.007.523-.012.79-.054a4.963 4.963 0 0 1 1.68-1.766z"/><path fill="#95d6a4" style="fill:var(--color5,#95d6a4)" d="M27.067 26.416c.093.036.131.2.063.273-.597.644-1.456 1.149-2.47 1.383s-2.008.156-2.826-.161c-.093-.036-.131-.2-.063-.273.597-.644 1.456-1.149 2.47-1.383s2.008-.156 2.826.161z"/><path fill="#78c2a4" style="fill:var(--color6,#78c2a4)" d="M25.002 26.805a5.055 5.055 0 0 1 2.068-.053c.02-.021.041-.041.06-.063.068-.073.03-.237-.063-.273-.818-.317-1.812-.395-2.826-.161s-1.873.739-2.47 1.383c-.068.073-.03.237.063.273.239.093.493.164.759.214.594-.614 1.429-1.094 2.41-1.32z"/><path fill="#95d6a4" style="fill:var(--color5,#95d6a4)" d="M4.933 26.416c-.093.036-.131.2-.063.273.597.644 1.456 1.149 2.47 1.383s2.008.156 2.826-.161c.093-.036.131-.2.063-.273-.597-.644-1.456-1.149-2.47-1.383s-2.008-.156-2.826.161z"/><path fill="#78c2a4" style="fill:var(--color6,#78c2a4)" d="M10.015 27.425a5.056 5.056 0 0 1-2.083-.05 4.936 4.936 0 0 1-2.256-1.169c-.26.05-.509.12-.743.211-.093.036-.131.2-.063.273.597.644 1.456 1.149 2.47 1.383s2.008.156 2.826-.161c.093-.036.131-.2.063-.273s-.14-.145-.214-.214z"/><path fill="#95d6a4" style="fill:var(--color5,#95d6a4)" d="M11.415 25.653c-.1.003-.191.144-.151.236.345.807.984 1.572 1.86 2.134s1.838.823 2.715.8c.1-.003.19-.144.151-.236-.345-.807-.984-1.572-1.86-2.134s-1.838-.823-2.715-.8z"/><path fill="#78c2a4" style="fill:var(--color6,#78c2a4)" d="M15.733 28.084a5.032 5.032 0 0 1-2.017-.76 5.008 5.008 0 0 1-1.603-1.631 4.241 4.241 0 0 0-.698-.04c-.1.003-.191.144-.151.236.345.807.984 1.572 1.86 2.134s1.838.823 2.715.8c.1-.003.191-.144.151-.236a4.339 4.339 0 0 0-.257-.503z"/><path fill="#bf7fe3" style="fill:var(--color7,#bf7fe3)" d="M20.094 19.255c-.623-.441-1.676-.036-2.416.903l.002.108c0 .881-.266 1.663-.676 2.152.065.266.199.486.404.631.656.464 1.789-.009 2.531-1.057s.811-2.274.155-2.738zM19.591 12.465c-.546-.387-1.47-.032-2.119.792l.002.095c0 .773-.233 1.459-.593 1.888a.925.925 0 0 0 .355.553c.575.407 1.569-.008 2.22-.927s.712-1.995.136-2.402zM18.97 6.388c-.452-.32-1.216-.026-1.752.655l.001.079c0 .639-.193 1.206-.491 1.561a.766.766 0 0 0 .293.458c.476.337 1.298-.006 1.836-.766s.588-1.649.113-1.986zM18.534 1.035c-.386-.273-1.038-.022-1.495.559l.001.067c0 .545-.164 1.029-.419 1.332a.65.65 0 0 0 .25.39c.406.287 1.107-.005 1.567-.654s.502-1.407.096-1.695z"/><path fill="#b3e59f" style="fill:var(--color12,#b3e59f)" d="M16 32a.476.476 0 0 1-.476-.476V2.93a.476.476 0 1 1 .952 0v28.593a.476.476 0 0 1-.476.476z"/><path fill="#bf7fe3" style="fill:var(--color7,#bf7fe3)" d="M9.485 12.229c-.634-.216-1.419.387-1.807 1.361l.028.091c.219.741.19 1.465-.033 1.978a.927.927 0 0 0 .497.43c.667.227 1.503-.453 1.866-1.518s.117-2.114-.551-2.342zM7.165 6.578c-.524-.179-1.173.32-1.495 1.126l.024.075c.181.613.157 1.211-.027 1.636.1.171.238.297.411.356.552.188 1.243-.374 1.543-1.256s.096-1.749-.455-1.937zM5.228 1.569c-.447-.152-1.001.273-1.275.96l.02.064c.155.523.134 1.034-.023 1.396a.65.65 0 0 0 .351.303c.471.16 1.06-.319 1.317-1.071s.082-1.492-.389-1.653z"/><path fill="#b3e59f" style="fill:var(--color12,#b3e59f)" d="M11.448 32a.476.476 0 0 1-.456-.341L2.898 4.3a.475.475 0 1 1 .912-.27l8.094 27.359a.475.475 0 0 1-.456.611z"/><path fill="#bf7fe3" style="fill:var(--color7,#bf7fe3)" d="m25.357 21.206.029-.104c.976-.691 2.101-.781 2.573-.181.497.631.083 1.787-.926 2.582s-2.229.927-2.727.295a1.056 1.056 0 0 1-.209-.72c.532-.353 1.009-1.027 1.259-1.872zM27.12 14.517l.026-.091c.856-.606 1.843-.685 2.257-.159.436.554.073 1.568-.812 2.264s-1.955.813-2.392.259a.92.92 0 0 1-.183-.631c.467-.309.885-.901 1.104-1.642zM28.644 8.47c.008-.025.014-.05.021-.076.708-.501 1.524-.566 1.866-.131.361.458.06 1.296-.672 1.873s-1.617.672-1.978.214a.762.762 0 0 1-.151-.522c.386-.256.732-.745.913-1.358zM30.021 3.183l.018-.065c.604-.428 1.3-.483 1.593-.112.308.391.051 1.106-.573 1.598s-1.38.574-1.688.183a.654.654 0 0 1-.129-.445c.33-.218.625-.636.779-1.159z"/><path fill="#b3e59f" style="fill:var(--color12,#b3e59f)" d="M20.552 32a.475.475 0 0 1-.456-.611l8.103-27.388a.475.475 0 1 1 .912.27l-8.103 27.388a.476.476 0 0 1-.456.341z"/><path fill="#cc98e9" style="fill:var(--color13,#cc98e9)" d="M16 3.322c.574 0 1.04-.744 1.04-1.661S16.574 0 16 0c-.574 0-1.04.744-1.04 1.661s.466 1.661 1.04 1.661zM3.449 4.481c.551-.163.786-1.009.525-1.888s-.918-1.461-1.469-1.298c-.551.163-.786 1.009-.525 1.888s.918 1.461 1.469 1.298zM30.03 3.182c.261-.88.025-1.725-.526-1.888s-1.208.418-1.469 1.298c-.261.88-.025 1.725.526 1.888s1.208-.418 1.469-1.298zM16 22.983c.945 0 1.712-1.216 1.712-2.715s-.766-2.715-1.712-2.715-1.712 1.216-1.712 2.715c0 1.5.766 2.715 1.712 2.715zM16 15.738c.831 0 1.505-1.068 1.505-2.386s-.674-2.386-1.505-2.386c-.831 0-1.505 1.068-1.505 2.386s.674 2.386 1.505 2.386zM16 9.1c.691 0 1.25-.886 1.25-1.978S16.69 5.143 16 5.143c-.691 0-1.25.886-1.25 1.979S15.31 9.1 16 9.1z"/><path fill="#bf7fe3" style="fill:var(--color7,#bf7fe3)" d="M16.05 1.661c0-.598.198-1.122.495-1.415C16.386.09 16.2-.001 16-.001c-.574 0-1.04.744-1.04 1.661s.466 1.661 1.04 1.661c.2 0 .387-.09.545-.247-.297-.293-.495-.817-.495-1.415zM15.379 20.267c0-1.195.489-2.211 1.167-2.573a1.145 1.145 0 0 0-.545-.142c-.944 0-1.712 1.218-1.712 2.715s.768 2.715 1.712 2.715c.191 0 .374-.05.545-.142-.677-.362-1.166-1.378-1.166-2.573zM15.585 13.352c0-1.011.399-1.876.96-2.223a1.026 1.026 0 0 0-.545-.163c-.83 0-1.505 1.07-1.505 2.386s.675 2.386 1.505 2.386c.192 0 .376-.058.545-.163-.561-.347-.96-1.212-.96-2.223zM15.84 7.122c0-.782.288-1.459.705-1.78A.889.889 0 0 0 16 5.144c-.69 0-1.25.888-1.25 1.979s.561 1.978 1.25 1.978c.195 0 .38-.071.545-.198-.417-.321-.705-.998-.705-1.78z"/><path fill="#cc98e9" style="fill:var(--color13,#cc98e9)" d="M8.876 18.549c-.457-.404-.951-.554-1.392-.423-.905.268-1.296 1.654-.871 3.09.205.693.567 1.295 1.02 1.695.349.309.721.469 1.073.469.108 0 .215-.015.319-.046.905-.268 1.296-1.654.871-3.09-.205-.693-.567-1.295-1.02-1.695zM6.969 16.386c.388-.115.681-.462.825-.979.142-.511.122-1.128-.059-1.736s-.498-1.137-.896-1.489c-.402-.355-.836-.487-1.225-.372s-.681.462-.825.979c-.142.511-.122 1.128.059 1.736s.498 1.137.896 1.489c.307.271.634.413.944.413a.989.989 0 0 0 .281-.04zM5.086 10.022c.661-.196.947-1.206.638-2.252s-1.099-1.738-1.76-1.542c-.661.196-.947 1.206-.638 2.252.149.504.413.942.742 1.234.255.225.526.343.784.343a.808.808 0 0 0 .234-.034z"/><path fill="#bf7fe3" style="fill:var(--color7,#bf7fe3)" d="M3.202 3.183c-.191-.644-.115-1.269.155-1.622-.268-.24-.574-.348-.852-.266-.551.163-.786 1.008-.526 1.888s.918 1.461 1.468 1.298a.73.73 0 0 0 .371-.266c-.262-.235-.488-.597-.617-1.032zM9.251 22.91c-.452-.4-.815-1.002-1.02-1.695-.347-1.173-.15-2.312.428-2.836-.393-.273-.803-.363-1.175-.253-.905.268-1.296 1.654-.871 3.09.205.693.567 1.295 1.02 1.695.349.309.721.469 1.073.469a1.114 1.114 0 0 0 .762-.299 2.518 2.518 0 0 1-.217-.17zM7.363 16.014c-.397-.351-.715-.88-.896-1.489s-.201-1.225-.059-1.736c.077-.276.197-.504.351-.674-.379-.304-.782-.412-1.145-.305-.388.115-.681.462-.825.979-.142.511-.122 1.128.059 1.736s.498 1.137.896 1.488c.307.271.634.413.944.413a.994.994 0 0 0 .755-.346c-.027-.022-.054-.043-.081-.067zM4.945 8.479c-.212-.717-.144-1.418.132-1.85-.342-.346-.747-.51-1.113-.402-.661.196-.947 1.206-.638 2.252.149.504.413.942.742 1.234.255.225.526.343.784.343.08 0 .158-.011.234-.034a.912.912 0 0 0 .505-.401 2.722 2.722 0 0 1-.646-1.142z"/><path fill="#cc98e9" style="fill:var(--color13,#cc98e9)" d="M24.516 18.126c-.441-.13-.936.02-1.392.423-.453.4-.815 1.002-1.02 1.695-.425 1.436-.034 2.822.871 3.09.104.031.21.046.319.046.353 0 .724-.161 1.073-.469.453-.4.815-1.002 1.02-1.695.425-1.436.034-2.822-.871-3.09zM26.384 11.811c-.388-.115-.823.017-1.225.372-.398.351-.715.88-.896 1.489s-.201 1.225-.058 1.736c.144.516.437.864.825.979.091.027.185.04.281.04.31 0 .637-.141.944-.413.397-.351.715-.88.895-1.489s.201-1.225.058-1.736c-.144-.516-.437-.864-.825-.979zM28.036 6.227c-.661-.195-1.451.496-1.76 1.543s-.023 2.056.638 2.252a.803.803 0 0 0 .234.034c.258 0 .529-.117.784-.343.329-.291.593-.729.742-1.234.309-1.046.023-2.056-.638-2.252z"/><path fill="#bf7fe3" style="fill:var(--color7,#bf7fe3)" d="M29.237 2.593c.13-.439.359-.804.624-1.039a.724.724 0 0 0-.366-.259c-.551-.163-1.208.418-1.468 1.298s-.025 1.725.526 1.888c.276.082.578-.023.844-.259-.274-.352-.352-.981-.16-1.629zM23.563 20.244c.205-.693.567-1.295 1.02-1.695.101-.089.203-.165.307-.229a1.108 1.108 0 0 0-.373-.194c-.441-.13-.936.02-1.392.423-.453.4-.815 1.002-1.02 1.695-.425 1.436-.034 2.822.871 3.09.104.031.21.046.319.046.251 0 .512-.082.767-.24-.631-.493-.859-1.676-.498-2.895zM25.664 15.408c-.142-.511-.122-1.128.058-1.736s.498-1.137.895-1.489c.057-.05.114-.095.172-.136a1.019 1.019 0 0 0-.406-.236c-.388-.115-.823.017-1.225.372-.398.351-.715.88-.896 1.489s-.201 1.225-.058 1.736c.144.516.437.864.825.979.091.027.185.04.281.04.253 0 .516-.095.772-.277-.187-.175-.331-.427-.419-.742zM27.735 7.77c.154-.52.426-.952.742-1.231a.869.869 0 0 0-.441-.311c-.661-.195-1.451.496-1.76 1.543s-.023 2.056.638 2.252a.803.803 0 0 0 .234.034c.258 0 .529-.117.784-.343l.001-.001c-.33-.42-.426-1.171-.198-1.942z"/></symbol><symbol id="icon-guarantee-1" viewBox="0 0 32 32"><path fill="#b3e59f" style="fill:var(--color12,#b3e59f)" d="M17.575 3.433A5.012 5.012 0 0 0 16.407.185a.53.53 0 0 0-.805 0 5.005 5.005 0 0 0-1.168 3.248c0 1.18.397 2.255 1.047 3.089v3.195h1.047V6.522a5.013 5.013 0 0 0 1.047-3.089zM19.291 6.738c-.836.836-1.236 1.93-1.189 2.973 1.044.046 2.138-.354 2.973-1.189a4.036 4.036 0 0 0 1.168-2.376.524.524 0 0 0-.575-.575 4.024 4.024 0 0 0-2.376 1.168z"/><path style="fill:var(--color14,#000)" d="M6.105 20.045a.524.524 0 0 1-.524-.524v-6.52h-.982a.524.524 0 1 1 0-1.048h1.505c.289 0 .524.234.524.524v7.044a.524.524 0 0 1-.524.524zM23.184 19.742a.523.523 0 0 1-.483-.726l2.76-6.577a.522.522 0 1 1 .965.405l-2.76 6.577a.522.522 0 0 1-.483.321zM22.655 15.692c-.961 0-1.743-.871-1.743-1.941s.782-1.941 1.743-1.941 1.743.871 1.743 1.941-.782 1.941-1.743 1.941zm0-2.834c-.377 0-.696.409-.696.894s.319.893.696.893c.384 0 .696-.401.696-.893 0-.484-.319-.894-.696-.894zM26.383 20.189c-.961 0-1.743-.871-1.743-1.941s.782-1.941 1.743-1.941 1.743.871 1.743 1.941-.782 1.941-1.743 1.941zm0-2.834c-.377 0-.696.409-.696.893s.319.894.696.894c.377 0 .696-.409.696-.894s-.319-.893-.696-.893zM17.177 20.189a2.563 2.563 0 0 1-2.56-2.56v-3.257c0-1.412 1.149-2.56 2.56-2.56s2.56 1.149 2.56 2.56v3.257a2.563 2.563 0 0 1-2.56 2.56zm0-7.331c-.835 0-1.513.679-1.513 1.513v3.257c0 .834.679 1.513 1.513 1.513s1.513-.679 1.513-1.513v-3.257c0-.834-.679-1.513-1.513-1.513zM10.659 20.189a2.563 2.563 0 0 1-2.56-2.56v-3.257c0-1.412 1.149-2.56 2.56-2.56s2.56 1.149 2.56 2.56v3.257a2.563 2.563 0 0 1-2.56 2.56zm0-7.331c-.835 0-1.513.679-1.513 1.513v3.257c0 .834.679 1.513 1.513 1.513s1.513-.679 1.513-1.513v-3.257c0-.834-.679-1.513-1.513-1.513z"/><path fill="#78c2a4" style="fill:var(--color6,#78c2a4)" d="M8.672 10.24a2.621 2.621 0 0 1-2.618-2.618.524.524 0 1 1 1.048 0c0 .866.705 1.571 1.571 1.571a.524.524 0 1 1 0 1.048z"/><path fill="#b3e59f" style="fill:var(--color12,#b3e59f)" d="M23.332 10.24a.524.524 0 1 1 0-1.048c.866 0 1.571-.705 1.571-1.571a.524.524 0 1 1 1.048 0 2.621 2.621 0 0 1-2.618 2.618z"/><path fill="#95d6a4" style="fill:var(--color5,#95d6a4)" d="M28.569 9.193h-14.68a4.023 4.023 0 0 0-1.175-2.454 4.036 4.036 0 0 0-2.376-1.168.524.524 0 0 0-.575.575c.099.852.49 1.699 1.168 2.376.269.269.565.492.877.67H3.436a.524.524 0 1 0 0 1.048h25.135a.524.524 0 1 0 0-1.048z"/><path fill="#b3e59f" style="fill:var(--color12,#b3e59f)" d="M17.575 28.567a5.012 5.012 0 0 1-1.168 3.248.53.53 0 0 1-.805 0 5.005 5.005 0 0 1-1.168-3.248c0-1.18.397-2.255 1.047-3.089v-3.195h1.047v3.195a5.013 5.013 0 0 1 1.047 3.089zM19.291 25.262c-.836-.836-1.236-1.93-1.189-2.974 1.044-.046 2.138.354 2.973 1.189a4.036 4.036 0 0 1 1.168 2.376.524.524 0 0 1-.575.575 4.024 4.024 0 0 1-2.376-1.168z"/><path fill="#78c2a4" style="fill:var(--color6,#78c2a4)" d="M8.672 21.76a2.621 2.621 0 0 0-2.618 2.618.524.524 0 1 0 1.048 0c0-.866.705-1.571 1.571-1.571a.524.524 0 1 0 0-1.048z"/><path fill="#b3e59f" style="fill:var(--color12,#b3e59f)" d="M23.332 21.76a.524.524 0 1 0 0 1.048c.866 0 1.571.705 1.571 1.571a.524.524 0 1 0 1.048 0 2.621 2.621 0 0 0-2.618-2.618z"/><path fill="#95d6a4" style="fill:var(--color5,#95d6a4)" d="M28.569 21.76H3.434a.524.524 0 1 0 0 1.048h8.372a4.143 4.143 0 0 0-.877.67 4.036 4.036 0 0 0-1.168 2.376.524.524 0 0 0 .575.575 4.024 4.024 0 0 0 2.376-1.168 4.023 4.023 0 0 0 1.175-2.454h14.68a.524.524 0 1 0 0-1.048z"/></symbol><symbol id="wish-icon" viewBox="0 0 32 32"><path fill="none" stroke="#03453b" style="stroke:var(--color15,#03453b)" stroke-width="1.714" d="m15.235 9.184.773 1.619.773-1.619c.808-1.692 2.521-2.613 4.629-2.613 2.825 0 5.153 2.426 5.161 5.445.004 1.329-.605 2.838-1.637 4.414-1.023 1.561-2.403 3.099-3.807 4.466a50.275 50.275 0 0 1-3.863 3.372c-.518.409-.95.735-1.256.96a50.174 50.174 0 0 1-5.12-4.336c-1.406-1.369-2.787-2.911-3.812-4.477-1.034-1.58-1.647-3.097-1.647-4.436 0-3.004 2.35-5.408 5.188-5.408 2.106 0 3.81.92 4.619 2.613z"/></symbol><symbol id="bell-icon" viewBox="0 0 32 32"><path fill="none" stroke="#03453b" style="stroke:var(--color15,#03453b)" stroke-linejoin="round" stroke-linecap="round" stroke-width="1.714" d="M17.977 26.29A2.29 2.29 0 0 1 16 27.429a2.286 2.286 0 0 1-1.977-1.139m13.406-4.573H4.572A3.428 3.428 0 0 0 8 18.288v-5.715a8.005 8.005 0 0 1 8-8.002 7.997 7.997 0 0 1 8 8.002v5.715a3.429 3.429 0 0 0 3.428 3.429v0z"/></symbol><symbol id="shopping-bag-icon" viewBox="0 0 32 32"><path fill="none" stroke="#03453b" style="stroke:var(--color15,#03453b)" stroke-linejoin="round" stroke-linecap="round" stroke-width="1.714" d="m5.714 10.057 3.238-4.343h12.952l3.238 4.343m-19.428 0v15.2c0 .576.227 1.128.632 1.535s.954.636 1.526.636h15.111c.573 0 1.122-.229 1.526-.636s.632-.96.632-1.535v-15.2m-19.427 0h19.429M19.746 14.4c0 1.152-.455 2.256-1.265 3.071a4.303 4.303 0 0 1-6.106 0A4.354 4.354 0 0 1 11.11 14.4"/></symbol><symbol id="user-icon" viewBox="0 0 32 32"><path fill="none" stroke="#03453b" style="stroke:var(--color15,#03453b)" stroke-linejoin="round" stroke-linecap="round" stroke-width="1.714" d="M25.143 27.429v-2.413c0-1.28-.512-2.507-1.423-3.412s-2.146-1.413-3.434-1.413h-9.714c-1.288 0-2.524.508-3.434 1.413s-1.423 2.132-1.423 3.412v2.413M20.286 10.54c0 2.665-2.175 4.825-4.857 4.825s-4.857-2.16-4.857-4.825 2.175-4.825 4.857-4.825 4.857 2.16 4.857 4.825z"/></symbol><symbol id="cross-icon" viewBox="0 0 32 32"><path fill="none" stroke="#bababa" style="stroke:var(--color16,#bababa)" stroke-linejoin="round" stroke-linecap="round" stroke-width=".8" d="m20.8 11.2-9.6 9.6m0-9.6 9.6 9.6"/></symbol><symbol id="icon-feature-6" viewBox="0 0 32 32"><path d="M2.667 16a13.327 13.327 0 0 1 7.516-11.998 13.33 13.33 0 0 1 14.074 1.531h-2.028a.665.665 0 0 0-.467 1.136.67.67 0 0 0 .467.198H26a.665.665 0 0 0 .666-.666V2.43a.667.667 0 1 0-1.334 0v2.257A14.666 14.666 0 0 0 5.627 26.372a.664.664 0 0 0 1.093-.212.665.665 0 0 0-.151-.73 13.232 13.232 0 0 1-3.905-9.428zM10.173 27.997a13.634 13.634 0 0 1-1.113-.608.67.67 0 0 0-.916.222.67.67 0 0 0 .222.916c.396.242.808.467 1.225.669a.668.668 0 0 0 .791-1.041.676.676 0 0 0-.207-.157zM28.003 10.186a.687.687 0 0 0 .381.339.665.665 0 0 0 .849-.411.662.662 0 0 0-.03-.51 14.7 14.7 0 0 0-.667-1.225.672.672 0 0 0-.412-.302.665.665 0 0 0-.727.994c.22.362.424.736.607 1.113zM17.582 29.24c-.421.05-.847.08-1.266.09a.669.669 0 0 0-.448 1.137.666.666 0 0 0 .462.196h.016c.461-.011.929-.044 1.391-.098a.661.661 0 0 0 .583-.74.666.666 0 0 0-.74-.584zM13.788 29.15c-.415-.069-.832-.16-1.239-.269a.663.663 0 0 0-.816.472.668.668 0 0 0 .472.816c.449.12.908.219 1.364.295a.67.67 0 0 0 .675-.305.672.672 0 0 0-.023-.74.659.659 0 0 0-.433-.27zM30.012 15.678a.667.667 0 0 0-.683.65c-.011.422-.041.847-.091 1.266a.667.667 0 0 0 1.324.159c.055-.46.089-.928.1-1.391a.677.677 0 0 0-.183-.476.68.68 0 0 0-.467-.207zM27.966 23.304a.67.67 0 0 0-.927.177c-.237.349-.493.69-.762 1.015a.67.67 0 0 0 .083.946c.068.056.146.099.231.124s.173.034.261.026a.673.673 0 0 0 .452-.245c.296-.357.578-.732.838-1.116a.656.656 0 0 0 .103-.499.66.66 0 0 0-.28-.426zM28.884 12.561c.108.406.198.823.267 1.24a.667.667 0 1 0 1.315-.219 14.571 14.571 0 0 0-.294-1.364.666.666 0 1 0-1.288.344zM24.484 26.287c-.326.27-.667.526-1.015.761a.66.66 0 0 0-.279.686.679.679 0 0 0 .286.423.66.66 0 0 0 .501.096.679.679 0 0 0 .24-.101c.382-.259.758-.54 1.116-.837a.67.67 0 0 0 .089-.939.67.67 0 0 0-.939-.089zM29.537 19.638a.67.67 0 0 0-.837.433c-.128.4-.277.799-.443 1.188a.655.655 0 0 0 .128.736.669.669 0 0 0 .95.007.654.654 0 0 0 .145-.219c.184-.427.348-.868.488-1.308.027-.083.037-.171.029-.258s-.032-.172-.072-.25a.652.652 0 0 0-.39-.329zM21.246 28.261c-.384.165-.784.314-1.188.442a.672.672 0 0 0-.462.579.682.682 0 0 0 .155.486.664.664 0 0 0 .711.205c.444-.142.884-.305 1.308-.487a.669.669 0 0 0 .351-.875.669.669 0 0 0-.875-.351z"/><path d="M10.362 14.638c0-1.093-.718-1.968-1.83-2.231a2.775 2.775 0 0 0-3.128 1.471.668.668 0 0 0 1.193.597 1.433 1.433 0 0 1 1.629-.769c.188.044.803.243.803.933 0 .695-.803 1.232-1.653 1.8-.957.639-2.042 1.363-2.042 2.563a.665.665 0 0 0 .666.666h3.695a.667.667 0 1 0 0-1.334H7.054c.279-.265.674-.528 1.062-.787 1.053-.703 2.246-1.5 2.246-2.908zM16.667 16.833a.665.665 0 0 0-.666-.666h-.542v-3.542a.663.663 0 0 0-.446-.628.664.664 0 0 0-.741.212l-3.375 4.208a.66.66 0 0 0-.081.705.67.67 0 0 0 .601.378h2.708v1.875a.667.667 0 1 0 1.334 0V17.5h.542a.665.665 0 0 0 .666-.666zm-2.542-.666h-1.319l1.319-1.645v1.645zM20.079 11.596a.67.67 0 0 0-.685.282.682.682 0 0 0-.099.24l-1.5 7.5a.664.664 0 0 0 .654.797.669.669 0 0 0 .653-.535l1.5-7.5a.67.67 0 0 0-.523-.785zM23.5 19.667a.668.668 0 0 0 .616-.41l2.5-6a.663.663 0 0 0-.061-.627.67.67 0 0 0-.555-.297h-3.375a.665.665 0 0 0-.467 1.136.67.67 0 0 0 .467.198H25l-2.115 5.077a.663.663 0 0 0 .301.844.665.665 0 0 0 .314.079z"/></symbol><symbol id="icon-feature-5" viewBox="0 0 32 32"><path d="m28.512 28.832-3.614-9.503c.357-.213.668-.497.913-.833a3.041 3.041 0 0 0 .488-2.543 2.067 2.067 0 0 1 .696-2.094 3.045 3.045 0 0 0 .82-3.669 3.058 3.058 0 0 0-.827-1.054 2.068 2.068 0 0 1-.689-2.095 3.03 3.03 0 0 0-.49-2.537 3.128 3.128 0 0 0-2.324-1.279 2.123 2.123 0 0 1-1.818-1.298 3.097 3.097 0 0 0-1.913-1.77 3.148 3.148 0 0 0-2.629.313 2.163 2.163 0 0 1-2.254 0 3.147 3.147 0 0 0-3.781.361c-.331.306-.59.68-.761 1.096a2.134 2.134 0 0 1-1.823 1.299 3.12 3.12 0 0 0-2.319 1.279 3.041 3.041 0 0 0-.488 2.543 2.067 2.067 0 0 1-.696 2.094 3.045 3.045 0 0 0-.82 3.669c.194.408.477.768.827 1.054a2.068 2.068 0 0 1 .689 2.095 3.03 3.03 0 0 0 .49 2.537c.245.336.556.619.913.832l-3.614 9.503a.496.496 0 0 0 .111.528.5.5 0 0 0 .526.12l3.937-1.415 2 3.674a.496.496 0 0 0 .439.261l.034-.001a.498.498 0 0 0 .434-.321l3.384-8.892c.182-.069.357-.154.522-.255a2.162 2.162 0 0 1 2.252 0c.166.1.34.184.521.251l3.385 8.895a.502.502 0 0 0 .434.321l.034.001a.497.497 0 0 0 .439-.261l2-3.674 3.937 1.415a.507.507 0 0 0 .526-.12.502.502 0 0 0 .111-.528zm-18.093 1.474-1.686-3.095a.498.498 0 0 0-.608-.231l-3.317 1.192 3.222-8.471c.159.037.32.062.483.075a2.123 2.123 0 0 1 1.818 1.298 3.097 3.097 0 0 0 1.913 1.77c.309.1.632.151.956.153l-2.781 7.309zm3.929-8.626a2.14 2.14 0 0 1-2.574-.243c-.224-.207-.4-.46-.516-.742a3.136 3.136 0 0 0-2.681-1.918 2.121 2.121 0 0 1-1.578-.868 2.051 2.051 0 0 1-.328-1.71 3.077 3.077 0 0 0-1.029-3.111 2.051 2.051 0 0 1 .006-3.181A3.074 3.074 0 0 0 6.67 6.795a2.052 2.052 0 0 1 .329-1.705 2.124 2.124 0 0 1 1.584-.868 3.132 3.132 0 0 0 2.675-1.918 2.095 2.095 0 0 1 1.297-1.197 2.146 2.146 0 0 1 1.794.214 3.17 3.17 0 0 0 3.304 0 2.155 2.155 0 0 1 2.574.243c.224.207.4.46.516.742a3.136 3.136 0 0 0 2.681 1.918 2.121 2.121 0 0 1 1.578.868 2.051 2.051 0 0 1 .328 1.71 3.077 3.077 0 0 0 1.029 3.111 2.051 2.051 0 0 1-.006 3.181 3.074 3.074 0 0 0-1.022 3.112 2.052 2.052 0 0 1-.329 1.705 2.124 2.124 0 0 1-1.584.868 3.132 3.132 0 0 0-2.675 1.918 2.095 2.095 0 0 1-1.297 1.197 2.145 2.145 0 0 1-1.794-.213 3.176 3.176 0 0 0-3.304.001zm9.526 5.299a.494.494 0 0 0-.608.231l-1.686 3.095-2.781-7.308c.325-.002.647-.054.956-.154a3.09 3.09 0 0 0 1.913-1.77c.153-.364.404-.679.726-.909s.701-.365 1.096-.39c.161-.012.321-.037.478-.074l3.222 8.471-3.317-1.192z"/><path d="M23.5 11.5a7.504 7.504 0 0 0-4.63-6.929 7.497 7.497 0 0 0-10.226 5.466A7.506 7.506 0 0 0 16 19a7.509 7.509 0 0 0 7.5-7.5zM16 18a6.5 6.5 0 1 1-.001-13.002A6.5 6.5 0 0 1 16 18.001z"/><path d="m19.977 9.842-2.438-.354-1.09-2.209a.518.518 0 0 0-.896 0l-1.09 2.209-2.438.354a.503.503 0 0 0-.404.34.5.5 0 0 0 .126.512l1.765 1.72-.416 2.428a.5.5 0 0 0 .726.527l2.181-1.146 2.181 1.146a.503.503 0 0 0 .696-.254.509.509 0 0 0 .03-.273l-.416-2.428 1.765-1.72a.491.491 0 0 0 .127-.512.502.502 0 0 0-.404-.34zm-2.374 2.04a.504.504 0 0 0-.143.443l.29 1.688-1.517-.797a.498.498 0 0 0-.465 0l-1.516.797.29-1.688a.497.497 0 0 0-.143-.443l-1.227-1.196 1.695-.246c.08-.012.156-.043.222-.09s.119-.111.154-.183l.758-1.536.758 1.536a.497.497 0 0 0 .376.273l1.695.246-1.227 1.196z"/></symbol><symbol id="icon-feature-4" viewBox="0 0 32 32"><path d="m30.894 11.628-4.147-4.147a4.535 4.535 0 0 0-3.228-1.337H8.481a4.538 4.538 0 0 0-3.228 1.337l-4.147 4.147a2.51 2.51 0 0 0-.171 3.37l13.114 16.076c.48.588 1.191.926 1.95.926s1.47-.337 1.95-.926l13.114-16.076a2.508 2.508 0 0 0-.171-3.37zm-6.389-4.411-1.888 5.349-5.485-5.485h6.387c.338 0 .669.047.986.136zm-2.981 5.582H10.476L16 7.275l5.524 5.524zm-6.656-5.718-5.485 5.485-1.888-5.349c.317-.089.648-.136.986-.136h6.387zM5.916 8.144a3.7 3.7 0 0 1 .715-.557l1.84 5.212H1.428c.077-.185.191-.358.341-.508l4.147-4.147zM15.91 31.06l-5.57-15.783a.469.469 0 0 0-.884.312l5.207 14.753L1.662 14.406a1.58 1.58 0 0 1-.322-.669h20.864L16.09 31.06a1.353 1.353 0 0 1-.18 0zm1.427-.718 8.031-22.755c.257.153.498.339.715.557l4.147 4.147c.15.15.263.323.341.508h-5.356a.469.469 0 0 0 0 .938h5.444a1.569 1.569 0 0 1-.322.669L17.336 30.342zM16 4.521c.259 0 .469-.21.469-.469V.468a.469.469 0 0 0-.938 0v3.584c0 .259.21.469.469.469zM10.973 4.262a.47.47 0 0 0 .839-.42l-1.024-2.048a.47.47 0 0 0-.839.419l1.024 2.048zM20.398 4.472a.47.47 0 0 0 .629-.209l1.024-2.048a.468.468 0 1 0-.839-.419l-1.024 2.048a.468.468 0 0 0 .21.629z"/></symbol><symbol id="icon-feature-3" viewBox="0 0 32 32"><path d="M15.969 8.312c-1.844 0-3.344 1.5-3.344 3.344S14.125 15 15.969 15c1.844 0 3.344-1.5 3.344-3.344s-1.5-3.344-3.344-3.344zm0 5.75c-1.327 0-2.406-1.079-2.406-2.406s1.08-2.406 2.406-2.406 2.406 1.079 2.406 2.406a2.408 2.408 0 0 1-2.406 2.406z"/><path d="m31.973 26.308-1.258-3.791-.001-.003-1.285-3.873-.001-.003-1.506-4.538a.469.469 0 0 0-.445-.321h-5.1c.273-.647.435-1.281.435-1.875 0-3.774-3.07-6.844-6.844-6.844s-6.844 3.07-6.844 6.844c0 .594.163 1.228.435 1.875H7.248v-.561a1.91 1.91 0 0 0 1.436-1.934 1.917 1.917 0 0 0-1.778-1.816 1.908 1.908 0 0 0-2.033 1.902 1.91 1.91 0 0 0 1.438 1.848v.561H4.522a.469.469 0 0 0-.445.321l-1.506 4.538-.001.003-1.285 3.872-.001.003-1.258 3.791a.468.468 0 0 0 .441.629h15.747a.469.469 0 0 0 0-.938h-4.617l.978-2.875h6.913l.978 2.875h-1.523a.469.469 0 0 0 0 .938h12.59a.471.471 0 0 0 .447-.325.486.486 0 0 0-.006-.304zm-4.834-11.589 1.193 3.594h-1.329l-1.222-3.594h1.358zm-5.063 0 1.222 3.594H19.17c.992-1.065 2.03-2.329 2.743-3.594h.163zm-6.107-8.72a5.913 5.913 0 0 1 5.906 5.907c0 1.32-1.058 3.189-3.059 5.404a35.222 35.222 0 0 1-2.849 2.792c-1.894-1.636-5.905-5.635-5.905-8.197a5.914 5.914 0 0 1 5.906-5.907zM5.812 11.373a.97.97 0 1 1 .969.969.97.97 0 0 1-.969-.969zM6.513 26H1.117l.954-2.875h3.378v.785a.469.469 0 0 0 .938 0v-.785h1.104L6.513 26zm-1.344-5.004a.75.75 0 1 1 1.5 0 .75.75 0 0 1-1.5 0zm18.304 1.811L24.559 26h-3.103l-1.189-3.495a.47.47 0 0 0-.444-.318h-7.584a.47.47 0 0 0-.444.318L10.606 26H7.503l1.086-3.193a.47.47 0 0 0-.457-.62H7.111c.335-.336.53-.811.488-1.33a1.695 1.695 0 0 0-1.571-1.546 1.69 1.69 0 0 0-1.798 1.684c0 .465.189.886.494 1.192H2.382l.975-2.938H8.05a.469.469 0 0 0 0-.938H3.668l1.193-3.594h1.451v.072c0 .257.198.48.454.488a.468.468 0 0 0 .483-.469v-.092h2.775c.713 1.265 1.75 2.529 2.743 3.594H10.78a.469.469 0 0 0 0 .938h2.897a33.23 33.23 0 0 0 1.992 1.829.468.468 0 0 0 .598 0 33.23 33.23 0 0 0 1.992-1.829h5.679a.47.47 0 0 0 .457-.62l-1.33-3.912h1.724l1.433 4.214a.47.47 0 0 0 .444.318h1.975l.975 2.938h-3.549a1.69 1.69 0 0 0 .923-1.292 1.69 1.69 0 1 0-3.354-.386 1.69 1.69 0 0 0 .932 1.679h-.641a.47.47 0 0 0-.457.62zm1.747-1.388a.752.752 0 0 1-.646-.646.752.752 0 0 1 .842-.842.752.752 0 0 1 .646.646.752.752 0 0 1-.842.842zM25.549 26l-.978-2.875h.278v.449c0 .223.148.428.367.474a.47.47 0 0 0 .571-.458v-.465h4.142L30.883 26H25.55z"/></symbol><symbol id="icon-feature-2" viewBox="0 0 32 32"><path d="m29.76 14.46-.829-3.315a.5.5 0 0 0 .397-.49v-.534c0-1.16-.944-2.104-2.104-2.104H23.45V6.915c0-.571-.464-1.035-1.035-1.035H3.175c-.571 0-1.035.465-1.035 1.035v9.086a.5.5 0 1 0 1.002 0V6.915c0-.018.015-.033.033-.033h19.24c.018 0 .033.015.033.033v9.086a.5.5 0 1 0 1.002 0v-.568h5.913a1.64 1.64 0 0 1 1.557 1.136h-1.558a.5.5 0 0 0-.501.501v1.069c0 .866.704 1.57 1.57 1.57h.568v2.205h-1.31c-.43-1.243-1.612-2.138-2.999-2.138s-2.569.895-2.999 2.138h-.241v-3.775a.5.5 0 1 0-1.002 0v3.774H12.052c-.43-1.243-1.612-2.138-2.999-2.138s-2.569.895-2.999 2.138h-2.88a.033.033 0 0 1-.033-.033v-1.102h2.171a.5.5 0 1 0 0-1.002H.502a.5.5 0 1 0 0 1.002h1.637v1.102c0 .571.465 1.035 1.035 1.035h2.707l-.001.033c0 1.75 1.424 3.173 3.173 3.173s3.173-1.424 3.173-3.173l-.001-.033h11.292l-.001.033c0 1.75 1.424 3.173 3.173 3.173s3.173-1.424 3.173-3.173l-.001-.033h1.638a.5.5 0 0 0 .501-.501V17.07a2.644 2.644 0 0 0-2.24-2.609zm-6.311-5.441h3.774c.608 0 1.102.495 1.102 1.102v.033h-4.877V9.018zm0 5.411v-3.274h4.452l.818 3.274h-5.271zM9.052 25.119c-1.197 0-2.171-.974-2.171-2.171s.974-2.171 2.171-2.171c1.197 0 2.171.974 2.171 2.171s-.974 2.171-2.171 2.171zm17.637 0c-1.197 0-2.171-.974-2.171-2.171s.974-2.171 2.171-2.171c1.197 0 2.171.974 2.171 2.171s-.974 2.171-2.171 2.171zm4.309-6.413h-.568a.569.569 0 0 1-.568-.568v-.568h1.136v1.136z"/><path d="M9.052 21.912c-.571 0-1.036.465-1.036 1.035a1.037 1.037 0 0 0 2.072 0c0-.571-.464-1.035-1.036-1.035zM26.689 21.912c-.571 0-1.035.465-1.035 1.035s.464 1.035 1.035 1.035a1.036 1.036 0 0 0 0-2.07zM20.81 19.775h-7.482a.5.5 0 1 0 0 1.002h7.482a.5.5 0 1 0 0-1.002zM7.983 17.637H1.57a.5.5 0 1 0 0 1.002h6.413a.5.5 0 1 0 0-1.002zM17.423 10.836a.5.5 0 0 0-.709 0l-4.456 4.456-2.318-2.318a.5.5 0 1 0-.709.709l2.672 2.672a.5.5 0 0 0 .708 0l4.81-4.81a.5.5 0 0 0 0-.709z"/></symbol><symbol id="icon-feature-1" viewBox="0 0 32 32"><path d="M17.061 21.065h8.531c.32 0 .533-.213.533-.533v-4.799c0-.32-.213-.533-.533-.533h-8.531c-.32 0-.533.213-.533.533v4.799c0 .32.213.533.533.533zm.533-4.798h7.464v3.732h-7.464v-3.732zM2.666 14.134h4.265c.32 0 .533-.213.533-.533s-.213-.533-.533-.533H2.666c-.32 0-.533.213-.533.533s.213.533.533.533zM9.064 14.134h4.265c.32 0 .533-.213.533-.533s-.213-.533-.533-.533H9.064c-.32 0-.533.213-.533.533s.213.533.533.533zM2.666 16.267h6.931c.32 0 .533-.213.533-.533s-.213-.533-.533-.533H2.666c-.32 0-.533.213-.533.533s.213.533.533.533zM13.329 15.2h-1.6c-.32 0-.533.213-.533.533s.213.533.533.533h1.599c.32 0 .533-.213.533-.533s-.213-.533-.533-.533z"/><path d="M31.51 8.589c-.373-.48-.853-.746-1.44-.8l-1.28-.155V5.07a2.14 2.14 0 0 0-2.133-2.133H2.131A2.14 2.14 0 0 0-.002 5.07v17.061a2.14 2.14 0 0 0 1.528 2.044 2.074 2.074 0 0 0 1.884 2.114l24.632 2.772h.213c1.066 0 2.026-.8 2.133-1.813l1.599-17.115a2.074 2.074 0 0 0-.48-1.546zM1.066 6.67h26.658v3.199H1.066V6.67zm1.067-2.666h24.526c.587 0 1.066.48 1.066 1.066v.533H1.067V5.07c0-.587.48-1.066 1.066-1.066zM1.066 22.131V10.934h26.658v11.197c0 .587-.48 1.066-1.066 1.066H2.132c-.587 0-1.066-.48-1.066-1.066zM30.924 9.922l-1.599 17.115a1.076 1.076 0 0 1-1.173.96L3.573 25.225a1.079 1.079 0 0 1-.96-.96h24.046a2.14 2.14 0 0 0 2.133-2.133V8.643l1.226.107c.267 0 .533.16.693.373s.267.533.213.8z"/></symbol><symbol id="icon-full-heart" viewBox="0 0 32 32"><path fill="#e12317" style="fill:var(--color17,#e12317);stroke:var(--color17,#e12317)" stroke="#e12317" stroke-width="1.412" d="m15.374 8.558.636 1.321.636-1.321c.987-2.05 3.076-3.146 5.592-3.146 3.432 0 6.223 2.917 6.233 6.501.004 1.597-.73 3.377-1.932 5.198-1.194 1.808-2.801 3.584-4.428 5.155a58.19 58.19 0 0 1-4.475 3.876 56.34 56.34 0 0 1-1.475 1.118l-.15.109-.15-.109c-.355-.26-.864-.64-1.475-1.118a58.08 58.08 0 0 1-4.477-3.88c-1.629-1.574-3.237-3.353-4.434-5.167-1.205-1.826-1.944-3.614-1.944-5.222 0-3.572 2.821-6.46 6.263-6.46 2.515 0 4.593 1.095 5.581 3.146z"/></symbol><symbol id="icon-empty-heart" viewBox="0 0 28 25"><path d="m13.335 4.093.675 1.403.676-1.403C15.736 1.914 17.954.75 20.628.75c3.646 0 6.612 3.1 6.622 6.908.004 1.696-.776 3.587-2.053 5.522-1.27 1.921-2.976 3.808-4.705 5.477a61.927 61.927 0 0 1-4.755 4.118 59.634 59.634 0 0 1-1.727 1.304l-.16-.116c-.376-.276-.917-.68-1.566-1.188a61.81 61.81 0 0 1-4.758-4.123c-1.73-1.672-3.439-3.562-4.71-5.49C1.535 11.223.75 9.322.75 7.614.75 3.819 3.747.75 7.405.75c2.672 0 4.88 1.163 5.93 3.343Z" stroke="#E12317" stroke-width="1.5"/></symbol><symbol id="arrow-right-long-icon" viewBox="0 0 88 32"><path d="M86.747 17.414a2 2 0 0 0 0-2.828L74.019 1.858a2 2 0 0 0-2.829 2.828L82.504 16 71.19 27.314a2 2 0 0 0 2.829 2.829l12.728-12.728zM0 18h85.333v-4H0v4z"/></symbol><symbol id="icon-reviewers-rate" viewBox="0 0 160 32"><path fill="#ffc549" style="fill:var(--color1,#ffc549)" d="m16 2.667 4.12 8.337 9.213 1.347-6.667 6.485L24.239 28l-8.24-4.329L7.759 28l1.573-9.164-6.667-6.487 9.213-1.345 4.12-8.337zm32 0 4.12 8.337 9.213 1.347-6.667 6.485L56.239 28l-8.24-4.329L39.759 28l1.573-9.164-6.667-6.487 9.213-1.345 4.12-8.337zm32 0 4.12 8.337 9.213 1.347-6.667 6.485L88.239 28l-8.24-4.329L71.759 28l1.573-9.164-6.667-6.487 9.213-1.345 4.12-8.337zm32 0 4.12 8.337 9.213 1.347-6.667 6.485L120.239 28l-8.24-4.329-8.24 4.329 1.573-9.164-6.667-6.487 9.213-1.345 4.12-8.337z"/><path fill="none" stroke="#ffc549" style="stroke:var(--color1,#ffc549)" stroke-linejoin="round" stroke-linecap="round" stroke-width="1.333" d="m144 2.667 4.12 8.337 9.213 1.347-6.667 6.485L152.239 28l-8.24-4.329-8.24 4.329 1.573-9.164-6.667-6.487 9.213-1.345 4.12-8.337z"/></symbol><symbol id="arrow-left-long-icon" viewBox="0 0 88 32"><path d="M1.253 17.413C.892 17.051.668 16.552.668 16s.224-1.052.585-1.413L13.981 1.859a2 2 0 1 1 2.828 2.825l-.001.001L5.496 16l11.312 11.315a2 2 0 0 1-2.828 2.825l.001.001L1.253 17.413zM88 18H2.667v-4H88v4z"/></symbol></defs></svg>