<svg width="40" height="40" viewBox="0 0 40 40" fill="none" xmlns="http://www.w3.org/2000/svg">
<path d="M31 27C31 27.5304 30.7893 28.0391 30.4142 28.4142C30.0391 28.7893 29.5304 29 29 29H11C10.4696 29 9.96086 28.7893 9.58579 28.4142C9.21071 28.0391 9 27.5304 9 27V16C9 15.4696 9.21071 14.9609 9.58579 14.5858C9.96086 14.2107 10.4696 14 11 14H15L17 11H23L25 14H29C29.5304 14 30.0391 14.2107 30.4142 14.5858C30.7893 14.9609 31 15.4696 31 16V27Z" stroke="#03453B" stroke-width="1.5" stroke-linecap="round" stroke-linejoin="round"/>
<path d="M20 25C22.2091 25 24 23.2091 24 21C24 18.7909 22.2091 17 20 17C17.7909 17 16 18.7909 16 21C16 23.2091 17.7909 25 20 25Z" stroke="#03453B" stroke-width="1.5" stroke-linecap="round" stroke-linejoin="round"/>
</svg>
