<svg width="32" height="32" viewBox="0 0 32 32" fill="none" xmlns="http://www.w3.org/2000/svg">
<path d="M17.696 17.696C17.4762 17.9317 17.2113 18.1209 16.9169 18.252C16.6225 18.3832 16.3047 18.4538 15.9824 18.4594C15.6602 18.4651 15.3401 18.4059 15.0412 18.2851C14.7424 18.1644 14.4709 17.9848 14.243 17.7569C14.0151 17.529 13.8355 17.2575 13.7148 16.9587C13.5941 16.6598 13.5348 16.3397 13.5405 16.0175C13.5461 15.6952 13.6167 15.3774 13.7479 15.083C13.879 14.7886 14.0682 14.5237 14.304 14.304M7.19995 7.19995L24.8 24.8M20.752 20.752C19.3844 21.7944 17.7192 22.3718 16 22.4C10.4 22.4 7.19995 16 7.19995 16C8.19506 14.1455 9.57526 12.5252 11.248 11.248L20.752 20.752ZM14.32 9.79195C14.8706 9.66305 15.4344 9.59862 16 9.59995C21.6 9.59995 24.8 16 24.8 16C24.3143 16.9084 23.7352 17.7637 23.072 18.552L14.32 9.79195Z" stroke="#333333" stroke-linecap="round" stroke-linejoin="round"/>
</svg>
