<svg aria-hidden="true" style="position: absolute; width: 0; height: 0; overflow: hidden;" version="1.1" xmlns="http://www.w3.org/2000/svg" xmlns:xlink="http://www.w3.org/1999/xlink">
<defs>
<symbol id="icon-fav" viewBox="0 0 28 28">
<path d="M13.3345 4.09306L14.0102 5.49632L14.686 4.09306C15.7351 1.91445 17.9545 0.75 20.6278 0.75C24.2743 0.75 27.2397 3.84913 27.2499 7.65752C27.2544 9.35433 26.4742 11.2455 25.1968 13.1799C23.9279 15.1014 22.2208 16.9875 20.4917 18.6572C18.7658 20.3239 17.0362 21.7575 15.7366 22.7753C15.0874 23.2837 14.5469 23.6873 14.1696 23.963C14.1127 24.0046 14.0595 24.0433 14.0103 24.079C13.961 24.0433 13.9078 24.0046 13.8509 23.963C13.4736 23.6872 12.9331 23.2835 12.2837 22.7747C10.9838 21.7564 9.25362 20.3215 7.52641 18.6522C5.79612 16.98 4.08701 15.0899 2.81523 13.1625C1.53506 11.2224 0.750156 9.32252 0.750156 7.61381C0.750156 3.81858 3.74708 0.75 7.40486 0.75C10.0767 0.75 12.2849 1.91337 13.3345 4.09306Z" stroke="#E12317" stroke-width="1.5"/></path>
</symbol>
</defs>
</svg>
